%TF.GenerationSoftware,KiCad,Pcbnew,7.0.10*%
%TF.CreationDate,2024-01-10T23:00:54+01:00*%
%TF.ProjectId,schematic2,73636865-6d61-4746-9963-322e6b696361,V2.0*%
%TF.SameCoordinates,Original*%
%TF.FileFunction,Drillmap*%
%TF.FilePolarity,Positive*%
%FSLAX45Y45*%
G04 Gerber Fmt 4.5, Leading zero omitted, Abs format (unit mm)*
G04 Created by KiCad (PCBNEW 7.0.10) date 2024-01-10 23:00:54*
%MOMM*%
%LPD*%
G01*
G04 APERTURE LIST*
%ADD10C,0.200000*%
%ADD11C,0.100000*%
%ADD12C,0.110000*%
%ADD13C,0.210000*%
%ADD14C,0.250000*%
G04 APERTURE END LIST*
D10*
X7983690Y-2250000D02*
G75*
G03*
X7780621Y-2293094I0J-500000D01*
G01*
X6933690Y-2614005D02*
X5933690Y-2600000D01*
X13933690Y-2600000D02*
G75*
G03*
X14033690Y-2614005I100000J350000D01*
G01*
X14033690Y-2614005D02*
X15033690Y-2600000D01*
X7583690Y-6800000D02*
X7583690Y-9400000D01*
X4652898Y-2623779D02*
G75*
G03*
X4683065Y-6774996I-69208J-2076222D01*
G01*
X7983690Y-2250000D02*
X12983690Y-2250000D01*
X16284315Y-6774996D02*
X13383690Y-6800000D01*
X4652898Y-2623778D02*
X5933690Y-2600000D01*
X4683065Y-6774996D02*
X7583690Y-6800000D01*
X13186759Y-2293094D02*
G75*
G03*
X12983690Y-2250000I-203069J-456906D01*
G01*
X16284315Y-6774996D02*
G75*
G03*
X16314482Y-2623778I99375J2074996D01*
G01*
X13186759Y-2293094D02*
X13933690Y-2600000D01*
X16314482Y-2623778D02*
X15033690Y-2600000D01*
X7583690Y-9400000D02*
X13383690Y-9400000D01*
X6933690Y-2614005D02*
G75*
G03*
X7033690Y-2600000I0J364005D01*
G01*
X13383690Y-6800000D02*
X13383690Y-9400000D01*
X7780621Y-2293094D02*
X7033690Y-2600000D01*
D11*
X3943690Y-4452000D02*
X4023690Y-4532000D01*
X4023690Y-4452000D02*
X3943690Y-4532000D01*
X3943690Y-5468000D02*
X4023690Y-5548000D01*
X4023690Y-5468000D02*
X3943690Y-5548000D01*
X5327690Y-5960000D02*
X5407690Y-6040000D01*
X5407690Y-5960000D02*
X5327690Y-6040000D01*
X5443690Y-2860000D02*
X5523690Y-2940000D01*
X5523690Y-2860000D02*
X5443690Y-2940000D01*
X5443690Y-3876000D02*
X5523690Y-3956000D01*
X5523690Y-3876000D02*
X5443690Y-3956000D01*
X6343690Y-5960000D02*
X6423690Y-6040000D01*
X6423690Y-5960000D02*
X6343690Y-6040000D01*
X7143690Y-4360000D02*
X7223690Y-4440000D01*
X7223690Y-4360000D02*
X7143690Y-4440000D01*
X7143690Y-5376000D02*
X7223690Y-5456000D01*
X7223690Y-5376000D02*
X7143690Y-5456000D01*
X8151190Y-3232500D02*
X8231190Y-3312500D01*
X8231190Y-3232500D02*
X8151190Y-3312500D01*
X8151190Y-3486500D02*
X8231190Y-3566500D01*
X8231190Y-3486500D02*
X8151190Y-3566500D01*
X8151190Y-3740500D02*
X8231190Y-3820500D01*
X8231190Y-3740500D02*
X8151190Y-3820500D01*
X8151190Y-3994500D02*
X8231190Y-4074500D01*
X8231190Y-3994500D02*
X8151190Y-4074500D01*
X8151190Y-4248500D02*
X8231190Y-4328500D01*
X8231190Y-4248500D02*
X8151190Y-4328500D01*
X8151190Y-4502500D02*
X8231190Y-4582500D01*
X8231190Y-4502500D02*
X8151190Y-4582500D01*
X8151190Y-4756500D02*
X8231190Y-4836500D01*
X8231190Y-4756500D02*
X8151190Y-4836500D01*
X8151190Y-5010500D02*
X8231190Y-5090500D01*
X8231190Y-5010500D02*
X8151190Y-5090500D01*
X8151190Y-5264500D02*
X8231190Y-5344500D01*
X8231190Y-5264500D02*
X8151190Y-5344500D01*
X8151190Y-5518500D02*
X8231190Y-5598500D01*
X8231190Y-5518500D02*
X8151190Y-5598500D01*
X8151190Y-5772500D02*
X8231190Y-5852500D01*
X8231190Y-5772500D02*
X8151190Y-5852500D01*
X8151190Y-6026500D02*
X8231190Y-6106500D01*
X8231190Y-6026500D02*
X8151190Y-6106500D01*
X8151190Y-6280500D02*
X8231190Y-6360500D01*
X8231190Y-6280500D02*
X8151190Y-6360500D01*
X8151190Y-6534500D02*
X8231190Y-6614500D01*
X8231190Y-6534500D02*
X8151190Y-6614500D01*
X8151190Y-6788500D02*
X8231190Y-6868500D01*
X8231190Y-6788500D02*
X8151190Y-6868500D01*
X8151190Y-7042500D02*
X8231190Y-7122500D01*
X8231190Y-7042500D02*
X8151190Y-7122500D01*
X8151190Y-7296500D02*
X8231190Y-7376500D01*
X8231190Y-7296500D02*
X8151190Y-7376500D01*
X8151190Y-7550500D02*
X8231190Y-7630500D01*
X8231190Y-7550500D02*
X8151190Y-7630500D01*
X8151190Y-7804500D02*
X8231190Y-7884500D01*
X8231190Y-7804500D02*
X8151190Y-7884500D01*
X8151190Y-8058500D02*
X8231190Y-8138500D01*
X8231190Y-8058500D02*
X8151190Y-8138500D01*
X8151190Y-8312500D02*
X8231190Y-8392500D01*
X8231190Y-8312500D02*
X8151190Y-8392500D01*
X8151190Y-8566500D02*
X8231190Y-8646500D01*
X8231190Y-8566500D02*
X8151190Y-8646500D01*
X10437190Y-3994500D02*
X10517190Y-4074500D01*
X10517190Y-3994500D02*
X10437190Y-4074500D01*
X10437190Y-4248500D02*
X10517190Y-4328500D01*
X10517190Y-4248500D02*
X10437190Y-4328500D01*
X10437190Y-4502500D02*
X10517190Y-4582500D01*
X10517190Y-4502500D02*
X10437190Y-4582500D01*
X10437190Y-4756500D02*
X10517190Y-4836500D01*
X10517190Y-4756500D02*
X10437190Y-4836500D01*
X10437190Y-5010500D02*
X10517190Y-5090500D01*
X10517190Y-5010500D02*
X10437190Y-5090500D01*
X10437190Y-5264500D02*
X10517190Y-5344500D01*
X10517190Y-5264500D02*
X10437190Y-5344500D01*
X10437190Y-5518500D02*
X10517190Y-5598500D01*
X10517190Y-5518500D02*
X10437190Y-5598500D01*
X10437190Y-5772500D02*
X10517190Y-5852500D01*
X10517190Y-5772500D02*
X10437190Y-5852500D01*
X10437190Y-6026500D02*
X10517190Y-6106500D01*
X10517190Y-6026500D02*
X10437190Y-6106500D01*
X10437190Y-6280500D02*
X10517190Y-6360500D01*
X10517190Y-6280500D02*
X10437190Y-6360500D01*
X10437190Y-6534500D02*
X10517190Y-6614500D01*
X10517190Y-6534500D02*
X10437190Y-6614500D01*
X10437190Y-6788500D02*
X10517190Y-6868500D01*
X10517190Y-6788500D02*
X10437190Y-6868500D01*
X10437190Y-7042500D02*
X10517190Y-7122500D01*
X10517190Y-7042500D02*
X10437190Y-7122500D01*
X10437190Y-7296500D02*
X10517190Y-7376500D01*
X10517190Y-7296500D02*
X10437190Y-7376500D01*
X10437190Y-7550500D02*
X10517190Y-7630500D01*
X10517190Y-7550500D02*
X10437190Y-7630500D01*
X10437190Y-7804500D02*
X10517190Y-7884500D01*
X10517190Y-7804500D02*
X10437190Y-7884500D01*
X10437190Y-8058500D02*
X10517190Y-8138500D01*
X10517190Y-8058500D02*
X10437190Y-8138500D01*
X10437190Y-8312500D02*
X10517190Y-8392500D01*
X10517190Y-8312500D02*
X10437190Y-8392500D01*
X10437190Y-8566500D02*
X10517190Y-8646500D01*
X10517190Y-8566500D02*
X10437190Y-8646500D01*
X10437558Y-3232772D02*
X10517558Y-3312772D01*
X10517558Y-3232772D02*
X10437558Y-3312772D01*
X10437558Y-3486772D02*
X10517558Y-3566772D01*
X10517558Y-3486772D02*
X10437558Y-3566772D01*
X10437558Y-3740772D02*
X10517558Y-3820772D01*
X10517558Y-3740772D02*
X10437558Y-3820772D01*
X10856600Y-6285290D02*
X10936600Y-6365290D01*
X10936600Y-6285290D02*
X10856600Y-6365290D01*
X10856600Y-6920290D02*
X10936600Y-7000290D01*
X10936600Y-6920290D02*
X10856600Y-7000290D01*
X10882000Y-7555290D02*
X10962000Y-7635290D01*
X10962000Y-7555290D02*
X10882000Y-7635290D01*
X11872600Y-6285290D02*
X11952600Y-6365290D01*
X11952600Y-6285290D02*
X11872600Y-6365290D01*
X11872600Y-6920290D02*
X11952600Y-7000290D01*
X11952600Y-6920290D02*
X11872600Y-7000290D01*
X11898000Y-7555290D02*
X11978000Y-7635290D01*
X11978000Y-7555290D02*
X11898000Y-7635290D01*
X12253600Y-6539290D02*
X12333600Y-6619290D01*
X12333600Y-6539290D02*
X12253600Y-6619290D01*
X12253600Y-7555290D02*
X12333600Y-7635290D01*
X12333600Y-7555290D02*
X12253600Y-7635290D01*
X12761600Y-6234490D02*
X12841600Y-6314490D01*
X12841600Y-6234490D02*
X12761600Y-6314490D01*
X12761600Y-7250490D02*
X12841600Y-7330490D01*
X12841600Y-7250490D02*
X12761600Y-7330490D01*
X12761600Y-7580690D02*
X12841600Y-7660690D01*
X12841600Y-7580690D02*
X12761600Y-7660690D01*
X12761600Y-8596690D02*
X12841600Y-8676690D01*
X12841600Y-8596690D02*
X12761600Y-8676690D01*
X13543690Y-4552000D02*
X13623690Y-4632000D01*
X13623690Y-4552000D02*
X13543690Y-4632000D01*
X13543690Y-5568000D02*
X13623690Y-5648000D01*
X13623690Y-5568000D02*
X13543690Y-5648000D01*
X15743690Y-3544000D02*
X15823690Y-3624000D01*
X15823690Y-3544000D02*
X15743690Y-3624000D01*
X15743690Y-4560000D02*
X15823690Y-4640000D01*
X15823690Y-4560000D02*
X15743690Y-4640000D01*
X10826990Y-8382690D02*
G75*
G03*
X10736990Y-8382690I-45000J0D01*
G01*
X10736990Y-8382690D02*
G75*
G03*
X10826990Y-8382690I45000J0D01*
G01*
X10953990Y-8382690D02*
G75*
G03*
X10863990Y-8382690I-45000J0D01*
G01*
X10863990Y-8382690D02*
G75*
G03*
X10953990Y-8382690I45000J0D01*
G01*
X11080990Y-8382690D02*
G75*
G03*
X10990990Y-8382690I-45000J0D01*
G01*
X10990990Y-8382690D02*
G75*
G03*
X11080990Y-8382690I45000J0D01*
G01*
X11207990Y-8382690D02*
G75*
G03*
X11117990Y-8382690I-45000J0D01*
G01*
X11117990Y-8382690D02*
G75*
G03*
X11207990Y-8382690I45000J0D01*
G01*
X10845470Y-2527330D02*
X10845470Y-2627330D01*
X10795470Y-2577330D02*
X10895470Y-2577330D01*
X10845470Y-4827330D02*
X10845470Y-4927330D01*
X10795470Y-4877330D02*
X10895470Y-4877330D01*
X11099470Y-4827330D02*
X11099470Y-4927330D01*
X11049470Y-4877330D02*
X11149470Y-4877330D01*
X11991470Y-4827330D02*
X11991470Y-4927330D01*
X11941470Y-4877330D02*
X12041470Y-4877330D01*
X12245470Y-2527330D02*
X12245470Y-2627330D01*
X12195470Y-2577330D02*
X12295470Y-2577330D01*
X12245470Y-4827330D02*
X12245470Y-4927330D01*
X12195470Y-4877330D02*
X12295470Y-4877330D01*
D12*
X2772581Y-4538891D02*
X2772581Y-4461109D01*
X2694799Y-4461109D01*
X2694799Y-4538891D01*
X2772581Y-4538891D01*
X2772581Y-4988891D02*
X2772581Y-4911109D01*
X2694799Y-4911109D01*
X2694799Y-4988891D01*
X2772581Y-4988891D01*
X3422581Y-4538891D02*
X3422581Y-4461109D01*
X3344799Y-4461109D01*
X3344799Y-4538891D01*
X3422581Y-4538891D01*
X3422581Y-4988891D02*
X3422581Y-4911109D01*
X3344799Y-4911109D01*
X3344799Y-4988891D01*
X3422581Y-4988891D01*
X4397581Y-3013891D02*
X4397581Y-2936109D01*
X4319799Y-2936109D01*
X4319799Y-3013891D01*
X4397581Y-3013891D01*
X4397581Y-3463891D02*
X4397581Y-3386109D01*
X4319799Y-3386109D01*
X4319799Y-3463891D01*
X4397581Y-3463891D01*
X4397581Y-6013891D02*
X4397581Y-5936109D01*
X4319799Y-5936109D01*
X4319799Y-6013891D01*
X4397581Y-6013891D01*
X4397581Y-6463891D02*
X4397581Y-6386109D01*
X4319799Y-6386109D01*
X4319799Y-6463891D01*
X4397581Y-6463891D01*
X5047581Y-3013891D02*
X5047581Y-2936109D01*
X4969799Y-2936109D01*
X4969799Y-3013891D01*
X5047581Y-3013891D01*
X5047581Y-3463891D02*
X5047581Y-3386109D01*
X4969799Y-3386109D01*
X4969799Y-3463891D01*
X5047581Y-3463891D01*
X5047581Y-6013891D02*
X5047581Y-5936109D01*
X4969799Y-5936109D01*
X4969799Y-6013891D01*
X5047581Y-6013891D01*
X5047581Y-6463891D02*
X5047581Y-6386109D01*
X4969799Y-6386109D01*
X4969799Y-6463891D01*
X5047581Y-6463891D01*
X5997581Y-4513891D02*
X5997581Y-4436109D01*
X5919799Y-4436109D01*
X5919799Y-4513891D01*
X5997581Y-4513891D01*
X5997581Y-4963891D02*
X5997581Y-4886109D01*
X5919799Y-4886109D01*
X5919799Y-4963891D01*
X5997581Y-4963891D01*
X6647581Y-4513891D02*
X6647581Y-4436109D01*
X6569799Y-4436109D01*
X6569799Y-4513891D01*
X6647581Y-4513891D01*
X6647581Y-4963891D02*
X6647581Y-4886109D01*
X6569799Y-4886109D01*
X6569799Y-4963891D01*
X6647581Y-4963891D01*
X11588081Y-8171181D02*
X11588081Y-8093399D01*
X11510299Y-8093399D01*
X11510299Y-8171181D01*
X11588081Y-8171181D01*
X11588081Y-8621181D02*
X11588081Y-8543399D01*
X11510299Y-8543399D01*
X11510299Y-8621181D01*
X11588081Y-8621181D01*
X12238081Y-8171181D02*
X12238081Y-8093399D01*
X12160299Y-8093399D01*
X12160299Y-8171181D01*
X12238081Y-8171181D01*
X12238081Y-8621181D02*
X12238081Y-8543399D01*
X12160299Y-8543399D01*
X12160299Y-8621181D01*
X12238081Y-8621181D01*
X14297581Y-4713891D02*
X14297581Y-4636109D01*
X14219799Y-4636109D01*
X14219799Y-4713891D01*
X14297581Y-4713891D01*
X14297581Y-5163891D02*
X14297581Y-5086109D01*
X14219799Y-5086109D01*
X14219799Y-5163891D01*
X14297581Y-5163891D01*
X14947581Y-4713891D02*
X14947581Y-4636109D01*
X14869799Y-4636109D01*
X14869799Y-4713891D01*
X14947581Y-4713891D01*
X14947581Y-5163891D02*
X14947581Y-5086109D01*
X14869799Y-5086109D01*
X14869799Y-5163891D01*
X14947581Y-5163891D01*
X16397581Y-3613891D02*
X16397581Y-3536109D01*
X16319799Y-3536109D01*
X16319799Y-3613891D01*
X16397581Y-3613891D01*
X16397581Y-4063891D02*
X16397581Y-3986109D01*
X16319799Y-3986109D01*
X16319799Y-4063891D01*
X16397581Y-4063891D01*
X17047581Y-3613891D02*
X17047581Y-3536109D01*
X16969799Y-3536109D01*
X16969799Y-3613891D01*
X17047581Y-3613891D01*
X17047581Y-4063891D02*
X17047581Y-3986109D01*
X16969799Y-3986109D01*
X16969799Y-4063891D01*
X17047581Y-4063891D01*
D13*
X12827000Y-2696490D02*
X12932000Y-2591490D01*
X12827000Y-2486490D01*
X12722000Y-2591490D01*
X12827000Y-2696490D01*
X12827000Y-3476490D02*
X12932000Y-3371490D01*
X12827000Y-3266490D01*
X12722000Y-3371490D01*
X12827000Y-3476490D01*
D14*
X4542980Y-4574390D02*
X4792980Y-4824390D01*
X4792980Y-4574390D02*
X4542980Y-4824390D01*
X4792980Y-4699390D02*
G75*
G03*
X4542980Y-4699390I-125000J0D01*
G01*
X4542980Y-4699390D02*
G75*
G03*
X4792980Y-4699390I125000J0D01*
G01*
X7258690Y-2875000D02*
X7508690Y-3125000D01*
X7508690Y-2875000D02*
X7258690Y-3125000D01*
X7508690Y-3000000D02*
G75*
G03*
X7258690Y-3000000I-125000J0D01*
G01*
X7258690Y-3000000D02*
G75*
G03*
X7508690Y-3000000I125000J0D01*
G01*
X7758690Y-8975000D02*
X8008690Y-9225000D01*
X8008690Y-8975000D02*
X7758690Y-9225000D01*
X8008690Y-9100000D02*
G75*
G03*
X7758690Y-9100000I-125000J0D01*
G01*
X7758690Y-9100000D02*
G75*
G03*
X8008690Y-9100000I125000J0D01*
G01*
X12958690Y-8975000D02*
X13208690Y-9225000D01*
X13208690Y-8975000D02*
X12958690Y-9225000D01*
X13208690Y-9100000D02*
G75*
G03*
X12958690Y-9100000I-125000J0D01*
G01*
X12958690Y-9100000D02*
G75*
G03*
X13208690Y-9100000I125000J0D01*
G01*
X13458690Y-2875000D02*
X13708690Y-3125000D01*
X13708690Y-2875000D02*
X13458690Y-3125000D01*
X13708690Y-3000000D02*
G75*
G03*
X13458690Y-3000000I-125000J0D01*
G01*
X13458690Y-3000000D02*
G75*
G03*
X13708690Y-3000000I125000J0D01*
G01*
X16174400Y-4574390D02*
X16424400Y-4824390D01*
X16424400Y-4574390D02*
X16174400Y-4824390D01*
X16424400Y-4699390D02*
G75*
G03*
X16174400Y-4699390I-125000J0D01*
G01*
X16174400Y-4699390D02*
G75*
G03*
X16424400Y-4699390I125000J0D01*
G01*
D10*
X2757092Y-9721484D02*
X2757092Y-9521484D01*
X2757092Y-9521484D02*
X2804711Y-9521484D01*
X2804711Y-9521484D02*
X2833283Y-9531008D01*
X2833283Y-9531008D02*
X2852330Y-9550055D01*
X2852330Y-9550055D02*
X2861854Y-9569103D01*
X2861854Y-9569103D02*
X2871378Y-9607198D01*
X2871378Y-9607198D02*
X2871378Y-9635770D01*
X2871378Y-9635770D02*
X2861854Y-9673865D01*
X2861854Y-9673865D02*
X2852330Y-9692912D01*
X2852330Y-9692912D02*
X2833283Y-9711960D01*
X2833283Y-9711960D02*
X2804711Y-9721484D01*
X2804711Y-9721484D02*
X2757092Y-9721484D01*
X2957092Y-9721484D02*
X2957092Y-9588150D01*
X2957092Y-9626246D02*
X2966616Y-9607198D01*
X2966616Y-9607198D02*
X2976140Y-9597674D01*
X2976140Y-9597674D02*
X2995187Y-9588150D01*
X2995187Y-9588150D02*
X3014235Y-9588150D01*
X3080902Y-9721484D02*
X3080902Y-9588150D01*
X3080902Y-9521484D02*
X3071378Y-9531008D01*
X3071378Y-9531008D02*
X3080902Y-9540531D01*
X3080902Y-9540531D02*
X3090425Y-9531008D01*
X3090425Y-9531008D02*
X3080902Y-9521484D01*
X3080902Y-9521484D02*
X3080902Y-9540531D01*
X3204711Y-9721484D02*
X3185663Y-9711960D01*
X3185663Y-9711960D02*
X3176140Y-9692912D01*
X3176140Y-9692912D02*
X3176140Y-9521484D01*
X3309473Y-9721484D02*
X3290425Y-9711960D01*
X3290425Y-9711960D02*
X3280902Y-9692912D01*
X3280902Y-9692912D02*
X3280902Y-9521484D01*
X3538044Y-9721484D02*
X3538044Y-9521484D01*
X3538044Y-9521484D02*
X3604711Y-9664341D01*
X3604711Y-9664341D02*
X3671378Y-9521484D01*
X3671378Y-9521484D02*
X3671378Y-9721484D01*
X3852330Y-9721484D02*
X3852330Y-9616722D01*
X3852330Y-9616722D02*
X3842806Y-9597674D01*
X3842806Y-9597674D02*
X3823759Y-9588150D01*
X3823759Y-9588150D02*
X3785663Y-9588150D01*
X3785663Y-9588150D02*
X3766616Y-9597674D01*
X3852330Y-9711960D02*
X3833283Y-9721484D01*
X3833283Y-9721484D02*
X3785663Y-9721484D01*
X3785663Y-9721484D02*
X3766616Y-9711960D01*
X3766616Y-9711960D02*
X3757092Y-9692912D01*
X3757092Y-9692912D02*
X3757092Y-9673865D01*
X3757092Y-9673865D02*
X3766616Y-9654817D01*
X3766616Y-9654817D02*
X3785663Y-9645293D01*
X3785663Y-9645293D02*
X3833283Y-9645293D01*
X3833283Y-9645293D02*
X3852330Y-9635770D01*
X3947568Y-9588150D02*
X3947568Y-9788150D01*
X3947568Y-9597674D02*
X3966616Y-9588150D01*
X3966616Y-9588150D02*
X4004711Y-9588150D01*
X4004711Y-9588150D02*
X4023759Y-9597674D01*
X4023759Y-9597674D02*
X4033283Y-9607198D01*
X4033283Y-9607198D02*
X4042806Y-9626246D01*
X4042806Y-9626246D02*
X4042806Y-9683389D01*
X4042806Y-9683389D02*
X4033283Y-9702436D01*
X4033283Y-9702436D02*
X4023759Y-9711960D01*
X4023759Y-9711960D02*
X4004711Y-9721484D01*
X4004711Y-9721484D02*
X3966616Y-9721484D01*
X3966616Y-9721484D02*
X3947568Y-9711960D01*
X4128521Y-9702436D02*
X4138044Y-9711960D01*
X4138044Y-9711960D02*
X4128521Y-9721484D01*
X4128521Y-9721484D02*
X4118997Y-9711960D01*
X4118997Y-9711960D02*
X4128521Y-9702436D01*
X4128521Y-9702436D02*
X4128521Y-9721484D01*
X4128521Y-9597674D02*
X4138044Y-9607198D01*
X4138044Y-9607198D02*
X4128521Y-9616722D01*
X4128521Y-9616722D02*
X4118997Y-9607198D01*
X4118997Y-9607198D02*
X4128521Y-9597674D01*
X4128521Y-9597674D02*
X4128521Y-9616722D01*
D11*
X2416315Y-10010000D02*
X2496315Y-10090000D01*
X2496315Y-10010000D02*
X2416315Y-10090000D01*
D10*
X2795187Y-9941484D02*
X2814235Y-9941484D01*
X2814235Y-9941484D02*
X2833283Y-9951008D01*
X2833283Y-9951008D02*
X2842806Y-9960531D01*
X2842806Y-9960531D02*
X2852330Y-9979579D01*
X2852330Y-9979579D02*
X2861854Y-10017674D01*
X2861854Y-10017674D02*
X2861854Y-10065293D01*
X2861854Y-10065293D02*
X2852330Y-10103389D01*
X2852330Y-10103389D02*
X2842806Y-10122436D01*
X2842806Y-10122436D02*
X2833283Y-10131960D01*
X2833283Y-10131960D02*
X2814235Y-10141484D01*
X2814235Y-10141484D02*
X2795187Y-10141484D01*
X2795187Y-10141484D02*
X2776140Y-10131960D01*
X2776140Y-10131960D02*
X2766616Y-10122436D01*
X2766616Y-10122436D02*
X2757092Y-10103389D01*
X2757092Y-10103389D02*
X2747568Y-10065293D01*
X2747568Y-10065293D02*
X2747568Y-10017674D01*
X2747568Y-10017674D02*
X2757092Y-9979579D01*
X2757092Y-9979579D02*
X2766616Y-9960531D01*
X2766616Y-9960531D02*
X2776140Y-9951008D01*
X2776140Y-9951008D02*
X2795187Y-9941484D01*
X2947568Y-10122436D02*
X2957092Y-10131960D01*
X2957092Y-10131960D02*
X2947568Y-10141484D01*
X2947568Y-10141484D02*
X2938044Y-10131960D01*
X2938044Y-10131960D02*
X2947568Y-10122436D01*
X2947568Y-10122436D02*
X2947568Y-10141484D01*
X3071378Y-10027198D02*
X3052330Y-10017674D01*
X3052330Y-10017674D02*
X3042806Y-10008150D01*
X3042806Y-10008150D02*
X3033283Y-9989103D01*
X3033283Y-9989103D02*
X3033283Y-9979579D01*
X3033283Y-9979579D02*
X3042806Y-9960531D01*
X3042806Y-9960531D02*
X3052330Y-9951008D01*
X3052330Y-9951008D02*
X3071378Y-9941484D01*
X3071378Y-9941484D02*
X3109473Y-9941484D01*
X3109473Y-9941484D02*
X3128521Y-9951008D01*
X3128521Y-9951008D02*
X3138044Y-9960531D01*
X3138044Y-9960531D02*
X3147568Y-9979579D01*
X3147568Y-9979579D02*
X3147568Y-9989103D01*
X3147568Y-9989103D02*
X3138044Y-10008150D01*
X3138044Y-10008150D02*
X3128521Y-10017674D01*
X3128521Y-10017674D02*
X3109473Y-10027198D01*
X3109473Y-10027198D02*
X3071378Y-10027198D01*
X3071378Y-10027198D02*
X3052330Y-10036722D01*
X3052330Y-10036722D02*
X3042806Y-10046246D01*
X3042806Y-10046246D02*
X3033283Y-10065293D01*
X3033283Y-10065293D02*
X3033283Y-10103389D01*
X3033283Y-10103389D02*
X3042806Y-10122436D01*
X3042806Y-10122436D02*
X3052330Y-10131960D01*
X3052330Y-10131960D02*
X3071378Y-10141484D01*
X3071378Y-10141484D02*
X3109473Y-10141484D01*
X3109473Y-10141484D02*
X3128521Y-10131960D01*
X3128521Y-10131960D02*
X3138044Y-10122436D01*
X3138044Y-10122436D02*
X3147568Y-10103389D01*
X3147568Y-10103389D02*
X3147568Y-10065293D01*
X3147568Y-10065293D02*
X3138044Y-10046246D01*
X3138044Y-10046246D02*
X3128521Y-10036722D01*
X3128521Y-10036722D02*
X3109473Y-10027198D01*
X3271378Y-9941484D02*
X3290425Y-9941484D01*
X3290425Y-9941484D02*
X3309473Y-9951008D01*
X3309473Y-9951008D02*
X3318997Y-9960531D01*
X3318997Y-9960531D02*
X3328521Y-9979579D01*
X3328521Y-9979579D02*
X3338044Y-10017674D01*
X3338044Y-10017674D02*
X3338044Y-10065293D01*
X3338044Y-10065293D02*
X3328521Y-10103389D01*
X3328521Y-10103389D02*
X3318997Y-10122436D01*
X3318997Y-10122436D02*
X3309473Y-10131960D01*
X3309473Y-10131960D02*
X3290425Y-10141484D01*
X3290425Y-10141484D02*
X3271378Y-10141484D01*
X3271378Y-10141484D02*
X3252330Y-10131960D01*
X3252330Y-10131960D02*
X3242806Y-10122436D01*
X3242806Y-10122436D02*
X3233283Y-10103389D01*
X3233283Y-10103389D02*
X3223759Y-10065293D01*
X3223759Y-10065293D02*
X3223759Y-10017674D01*
X3223759Y-10017674D02*
X3233283Y-9979579D01*
X3233283Y-9979579D02*
X3242806Y-9960531D01*
X3242806Y-9960531D02*
X3252330Y-9951008D01*
X3252330Y-9951008D02*
X3271378Y-9941484D01*
X3461854Y-9941484D02*
X3480902Y-9941484D01*
X3480902Y-9941484D02*
X3499949Y-9951008D01*
X3499949Y-9951008D02*
X3509473Y-9960531D01*
X3509473Y-9960531D02*
X3518997Y-9979579D01*
X3518997Y-9979579D02*
X3528521Y-10017674D01*
X3528521Y-10017674D02*
X3528521Y-10065293D01*
X3528521Y-10065293D02*
X3518997Y-10103389D01*
X3518997Y-10103389D02*
X3509473Y-10122436D01*
X3509473Y-10122436D02*
X3499949Y-10131960D01*
X3499949Y-10131960D02*
X3480902Y-10141484D01*
X3480902Y-10141484D02*
X3461854Y-10141484D01*
X3461854Y-10141484D02*
X3442806Y-10131960D01*
X3442806Y-10131960D02*
X3433283Y-10122436D01*
X3433283Y-10122436D02*
X3423759Y-10103389D01*
X3423759Y-10103389D02*
X3414235Y-10065293D01*
X3414235Y-10065293D02*
X3414235Y-10017674D01*
X3414235Y-10017674D02*
X3423759Y-9979579D01*
X3423759Y-9979579D02*
X3433283Y-9960531D01*
X3433283Y-9960531D02*
X3442806Y-9951008D01*
X3442806Y-9951008D02*
X3461854Y-9941484D01*
X3614235Y-10141484D02*
X3614235Y-10008150D01*
X3614235Y-10027198D02*
X3623759Y-10017674D01*
X3623759Y-10017674D02*
X3642806Y-10008150D01*
X3642806Y-10008150D02*
X3671378Y-10008150D01*
X3671378Y-10008150D02*
X3690425Y-10017674D01*
X3690425Y-10017674D02*
X3699949Y-10036722D01*
X3699949Y-10036722D02*
X3699949Y-10141484D01*
X3699949Y-10036722D02*
X3709473Y-10017674D01*
X3709473Y-10017674D02*
X3728521Y-10008150D01*
X3728521Y-10008150D02*
X3757092Y-10008150D01*
X3757092Y-10008150D02*
X3776140Y-10017674D01*
X3776140Y-10017674D02*
X3785664Y-10036722D01*
X3785664Y-10036722D02*
X3785664Y-10141484D01*
X3880902Y-10141484D02*
X3880902Y-10008150D01*
X3880902Y-10027198D02*
X3890425Y-10017674D01*
X3890425Y-10017674D02*
X3909473Y-10008150D01*
X3909473Y-10008150D02*
X3938045Y-10008150D01*
X3938045Y-10008150D02*
X3957092Y-10017674D01*
X3957092Y-10017674D02*
X3966616Y-10036722D01*
X3966616Y-10036722D02*
X3966616Y-10141484D01*
X3966616Y-10036722D02*
X3976140Y-10017674D01*
X3976140Y-10017674D02*
X3995187Y-10008150D01*
X3995187Y-10008150D02*
X4023759Y-10008150D01*
X4023759Y-10008150D02*
X4042806Y-10017674D01*
X4042806Y-10017674D02*
X4052330Y-10036722D01*
X4052330Y-10036722D02*
X4052330Y-10141484D01*
X4442807Y-9931960D02*
X4271378Y-10189103D01*
X4699949Y-9941484D02*
X4718997Y-9941484D01*
X4718997Y-9941484D02*
X4738045Y-9951008D01*
X4738045Y-9951008D02*
X4747569Y-9960531D01*
X4747569Y-9960531D02*
X4757092Y-9979579D01*
X4757092Y-9979579D02*
X4766616Y-10017674D01*
X4766616Y-10017674D02*
X4766616Y-10065293D01*
X4766616Y-10065293D02*
X4757092Y-10103389D01*
X4757092Y-10103389D02*
X4747569Y-10122436D01*
X4747569Y-10122436D02*
X4738045Y-10131960D01*
X4738045Y-10131960D02*
X4718997Y-10141484D01*
X4718997Y-10141484D02*
X4699949Y-10141484D01*
X4699949Y-10141484D02*
X4680902Y-10131960D01*
X4680902Y-10131960D02*
X4671378Y-10122436D01*
X4671378Y-10122436D02*
X4661854Y-10103389D01*
X4661854Y-10103389D02*
X4652330Y-10065293D01*
X4652330Y-10065293D02*
X4652330Y-10017674D01*
X4652330Y-10017674D02*
X4661854Y-9979579D01*
X4661854Y-9979579D02*
X4671378Y-9960531D01*
X4671378Y-9960531D02*
X4680902Y-9951008D01*
X4680902Y-9951008D02*
X4699949Y-9941484D01*
X4852330Y-10122436D02*
X4861854Y-10131960D01*
X4861854Y-10131960D02*
X4852330Y-10141484D01*
X4852330Y-10141484D02*
X4842807Y-10131960D01*
X4842807Y-10131960D02*
X4852330Y-10122436D01*
X4852330Y-10122436D02*
X4852330Y-10141484D01*
X4985664Y-9941484D02*
X5004711Y-9941484D01*
X5004711Y-9941484D02*
X5023759Y-9951008D01*
X5023759Y-9951008D02*
X5033283Y-9960531D01*
X5033283Y-9960531D02*
X5042807Y-9979579D01*
X5042807Y-9979579D02*
X5052330Y-10017674D01*
X5052330Y-10017674D02*
X5052330Y-10065293D01*
X5052330Y-10065293D02*
X5042807Y-10103389D01*
X5042807Y-10103389D02*
X5033283Y-10122436D01*
X5033283Y-10122436D02*
X5023759Y-10131960D01*
X5023759Y-10131960D02*
X5004711Y-10141484D01*
X5004711Y-10141484D02*
X4985664Y-10141484D01*
X4985664Y-10141484D02*
X4966616Y-10131960D01*
X4966616Y-10131960D02*
X4957092Y-10122436D01*
X4957092Y-10122436D02*
X4947569Y-10103389D01*
X4947569Y-10103389D02*
X4938045Y-10065293D01*
X4938045Y-10065293D02*
X4938045Y-10017674D01*
X4938045Y-10017674D02*
X4947569Y-9979579D01*
X4947569Y-9979579D02*
X4957092Y-9960531D01*
X4957092Y-9960531D02*
X4966616Y-9951008D01*
X4966616Y-9951008D02*
X4985664Y-9941484D01*
X5118997Y-9941484D02*
X5242807Y-9941484D01*
X5242807Y-9941484D02*
X5176140Y-10017674D01*
X5176140Y-10017674D02*
X5204711Y-10017674D01*
X5204711Y-10017674D02*
X5223759Y-10027198D01*
X5223759Y-10027198D02*
X5233283Y-10036722D01*
X5233283Y-10036722D02*
X5242807Y-10055770D01*
X5242807Y-10055770D02*
X5242807Y-10103389D01*
X5242807Y-10103389D02*
X5233283Y-10122436D01*
X5233283Y-10122436D02*
X5223759Y-10131960D01*
X5223759Y-10131960D02*
X5204711Y-10141484D01*
X5204711Y-10141484D02*
X5147569Y-10141484D01*
X5147569Y-10141484D02*
X5128521Y-10131960D01*
X5128521Y-10131960D02*
X5118997Y-10122436D01*
X5433283Y-10141484D02*
X5318997Y-10141484D01*
X5376140Y-10141484D02*
X5376140Y-9941484D01*
X5376140Y-9941484D02*
X5357092Y-9970055D01*
X5357092Y-9970055D02*
X5338045Y-9989103D01*
X5338045Y-9989103D02*
X5318997Y-9998627D01*
X5614235Y-9941484D02*
X5518997Y-9941484D01*
X5518997Y-9941484D02*
X5509473Y-10036722D01*
X5509473Y-10036722D02*
X5518997Y-10027198D01*
X5518997Y-10027198D02*
X5538045Y-10017674D01*
X5538045Y-10017674D02*
X5585664Y-10017674D01*
X5585664Y-10017674D02*
X5604711Y-10027198D01*
X5604711Y-10027198D02*
X5614235Y-10036722D01*
X5614235Y-10036722D02*
X5623759Y-10055770D01*
X5623759Y-10055770D02*
X5623759Y-10103389D01*
X5623759Y-10103389D02*
X5614235Y-10122436D01*
X5614235Y-10122436D02*
X5604711Y-10131960D01*
X5604711Y-10131960D02*
X5585664Y-10141484D01*
X5585664Y-10141484D02*
X5538045Y-10141484D01*
X5538045Y-10141484D02*
X5518997Y-10131960D01*
X5518997Y-10131960D02*
X5509473Y-10122436D01*
X5699949Y-9941484D02*
X5699949Y-9979579D01*
X5776140Y-9941484D02*
X5776140Y-9979579D01*
X6071378Y-10217674D02*
X6061854Y-10208150D01*
X6061854Y-10208150D02*
X6042807Y-10179579D01*
X6042807Y-10179579D02*
X6033283Y-10160531D01*
X6033283Y-10160531D02*
X6023759Y-10131960D01*
X6023759Y-10131960D02*
X6014235Y-10084341D01*
X6014235Y-10084341D02*
X6014235Y-10046246D01*
X6014235Y-10046246D02*
X6023759Y-9998627D01*
X6023759Y-9998627D02*
X6033283Y-9970055D01*
X6033283Y-9970055D02*
X6042807Y-9951008D01*
X6042807Y-9951008D02*
X6061854Y-9922436D01*
X6061854Y-9922436D02*
X6071378Y-9912912D01*
X6233283Y-9941484D02*
X6195188Y-9941484D01*
X6195188Y-9941484D02*
X6176140Y-9951008D01*
X6176140Y-9951008D02*
X6166616Y-9960531D01*
X6166616Y-9960531D02*
X6147569Y-9989103D01*
X6147569Y-9989103D02*
X6138045Y-10027198D01*
X6138045Y-10027198D02*
X6138045Y-10103389D01*
X6138045Y-10103389D02*
X6147569Y-10122436D01*
X6147569Y-10122436D02*
X6157092Y-10131960D01*
X6157092Y-10131960D02*
X6176140Y-10141484D01*
X6176140Y-10141484D02*
X6214235Y-10141484D01*
X6214235Y-10141484D02*
X6233283Y-10131960D01*
X6233283Y-10131960D02*
X6242807Y-10122436D01*
X6242807Y-10122436D02*
X6252330Y-10103389D01*
X6252330Y-10103389D02*
X6252330Y-10055770D01*
X6252330Y-10055770D02*
X6242807Y-10036722D01*
X6242807Y-10036722D02*
X6233283Y-10027198D01*
X6233283Y-10027198D02*
X6214235Y-10017674D01*
X6214235Y-10017674D02*
X6176140Y-10017674D01*
X6176140Y-10017674D02*
X6157092Y-10027198D01*
X6157092Y-10027198D02*
X6147569Y-10036722D01*
X6147569Y-10036722D02*
X6138045Y-10055770D01*
X6366616Y-10027198D02*
X6347569Y-10017674D01*
X6347569Y-10017674D02*
X6338045Y-10008150D01*
X6338045Y-10008150D02*
X6328521Y-9989103D01*
X6328521Y-9989103D02*
X6328521Y-9979579D01*
X6328521Y-9979579D02*
X6338045Y-9960531D01*
X6338045Y-9960531D02*
X6347569Y-9951008D01*
X6347569Y-9951008D02*
X6366616Y-9941484D01*
X6366616Y-9941484D02*
X6404711Y-9941484D01*
X6404711Y-9941484D02*
X6423759Y-9951008D01*
X6423759Y-9951008D02*
X6433283Y-9960531D01*
X6433283Y-9960531D02*
X6442807Y-9979579D01*
X6442807Y-9979579D02*
X6442807Y-9989103D01*
X6442807Y-9989103D02*
X6433283Y-10008150D01*
X6433283Y-10008150D02*
X6423759Y-10017674D01*
X6423759Y-10017674D02*
X6404711Y-10027198D01*
X6404711Y-10027198D02*
X6366616Y-10027198D01*
X6366616Y-10027198D02*
X6347569Y-10036722D01*
X6347569Y-10036722D02*
X6338045Y-10046246D01*
X6338045Y-10046246D02*
X6328521Y-10065293D01*
X6328521Y-10065293D02*
X6328521Y-10103389D01*
X6328521Y-10103389D02*
X6338045Y-10122436D01*
X6338045Y-10122436D02*
X6347569Y-10131960D01*
X6347569Y-10131960D02*
X6366616Y-10141484D01*
X6366616Y-10141484D02*
X6404711Y-10141484D01*
X6404711Y-10141484D02*
X6423759Y-10131960D01*
X6423759Y-10131960D02*
X6433283Y-10122436D01*
X6433283Y-10122436D02*
X6442807Y-10103389D01*
X6442807Y-10103389D02*
X6442807Y-10065293D01*
X6442807Y-10065293D02*
X6433283Y-10046246D01*
X6433283Y-10046246D02*
X6423759Y-10036722D01*
X6423759Y-10036722D02*
X6404711Y-10027198D01*
X6680902Y-10141484D02*
X6680902Y-9941484D01*
X6766616Y-10141484D02*
X6766616Y-10036722D01*
X6766616Y-10036722D02*
X6757092Y-10017674D01*
X6757092Y-10017674D02*
X6738045Y-10008150D01*
X6738045Y-10008150D02*
X6709473Y-10008150D01*
X6709473Y-10008150D02*
X6690426Y-10017674D01*
X6690426Y-10017674D02*
X6680902Y-10027198D01*
X6890426Y-10141484D02*
X6871378Y-10131960D01*
X6871378Y-10131960D02*
X6861854Y-10122436D01*
X6861854Y-10122436D02*
X6852331Y-10103389D01*
X6852331Y-10103389D02*
X6852331Y-10046246D01*
X6852331Y-10046246D02*
X6861854Y-10027198D01*
X6861854Y-10027198D02*
X6871378Y-10017674D01*
X6871378Y-10017674D02*
X6890426Y-10008150D01*
X6890426Y-10008150D02*
X6918997Y-10008150D01*
X6918997Y-10008150D02*
X6938045Y-10017674D01*
X6938045Y-10017674D02*
X6947569Y-10027198D01*
X6947569Y-10027198D02*
X6957092Y-10046246D01*
X6957092Y-10046246D02*
X6957092Y-10103389D01*
X6957092Y-10103389D02*
X6947569Y-10122436D01*
X6947569Y-10122436D02*
X6938045Y-10131960D01*
X6938045Y-10131960D02*
X6918997Y-10141484D01*
X6918997Y-10141484D02*
X6890426Y-10141484D01*
X7071378Y-10141484D02*
X7052331Y-10131960D01*
X7052331Y-10131960D02*
X7042807Y-10112912D01*
X7042807Y-10112912D02*
X7042807Y-9941484D01*
X7223759Y-10131960D02*
X7204712Y-10141484D01*
X7204712Y-10141484D02*
X7166616Y-10141484D01*
X7166616Y-10141484D02*
X7147569Y-10131960D01*
X7147569Y-10131960D02*
X7138045Y-10112912D01*
X7138045Y-10112912D02*
X7138045Y-10036722D01*
X7138045Y-10036722D02*
X7147569Y-10017674D01*
X7147569Y-10017674D02*
X7166616Y-10008150D01*
X7166616Y-10008150D02*
X7204712Y-10008150D01*
X7204712Y-10008150D02*
X7223759Y-10017674D01*
X7223759Y-10017674D02*
X7233283Y-10036722D01*
X7233283Y-10036722D02*
X7233283Y-10055770D01*
X7233283Y-10055770D02*
X7138045Y-10074817D01*
X7309473Y-10131960D02*
X7328521Y-10141484D01*
X7328521Y-10141484D02*
X7366616Y-10141484D01*
X7366616Y-10141484D02*
X7385664Y-10131960D01*
X7385664Y-10131960D02*
X7395188Y-10112912D01*
X7395188Y-10112912D02*
X7395188Y-10103389D01*
X7395188Y-10103389D02*
X7385664Y-10084341D01*
X7385664Y-10084341D02*
X7366616Y-10074817D01*
X7366616Y-10074817D02*
X7338045Y-10074817D01*
X7338045Y-10074817D02*
X7318997Y-10065293D01*
X7318997Y-10065293D02*
X7309473Y-10046246D01*
X7309473Y-10046246D02*
X7309473Y-10036722D01*
X7309473Y-10036722D02*
X7318997Y-10017674D01*
X7318997Y-10017674D02*
X7338045Y-10008150D01*
X7338045Y-10008150D02*
X7366616Y-10008150D01*
X7366616Y-10008150D02*
X7385664Y-10017674D01*
X7461854Y-10217674D02*
X7471378Y-10208150D01*
X7471378Y-10208150D02*
X7490426Y-10179579D01*
X7490426Y-10179579D02*
X7499950Y-10160531D01*
X7499950Y-10160531D02*
X7509473Y-10131960D01*
X7509473Y-10131960D02*
X7518997Y-10084341D01*
X7518997Y-10084341D02*
X7518997Y-10046246D01*
X7518997Y-10046246D02*
X7509473Y-9998627D01*
X7509473Y-9998627D02*
X7499950Y-9970055D01*
X7499950Y-9970055D02*
X7490426Y-9951008D01*
X7490426Y-9951008D02*
X7471378Y-9922436D01*
X7471378Y-9922436D02*
X7461854Y-9912912D01*
D11*
X2496315Y-10314000D02*
G75*
G03*
X2406315Y-10314000I-45000J0D01*
G01*
X2406315Y-10314000D02*
G75*
G03*
X2496315Y-10314000I45000J0D01*
G01*
D10*
X2795187Y-10205484D02*
X2814235Y-10205484D01*
X2814235Y-10205484D02*
X2833283Y-10215008D01*
X2833283Y-10215008D02*
X2842806Y-10224531D01*
X2842806Y-10224531D02*
X2852330Y-10243579D01*
X2852330Y-10243579D02*
X2861854Y-10281674D01*
X2861854Y-10281674D02*
X2861854Y-10329293D01*
X2861854Y-10329293D02*
X2852330Y-10367389D01*
X2852330Y-10367389D02*
X2842806Y-10386436D01*
X2842806Y-10386436D02*
X2833283Y-10395960D01*
X2833283Y-10395960D02*
X2814235Y-10405484D01*
X2814235Y-10405484D02*
X2795187Y-10405484D01*
X2795187Y-10405484D02*
X2776140Y-10395960D01*
X2776140Y-10395960D02*
X2766616Y-10386436D01*
X2766616Y-10386436D02*
X2757092Y-10367389D01*
X2757092Y-10367389D02*
X2747568Y-10329293D01*
X2747568Y-10329293D02*
X2747568Y-10281674D01*
X2747568Y-10281674D02*
X2757092Y-10243579D01*
X2757092Y-10243579D02*
X2766616Y-10224531D01*
X2766616Y-10224531D02*
X2776140Y-10215008D01*
X2776140Y-10215008D02*
X2795187Y-10205484D01*
X2947568Y-10386436D02*
X2957092Y-10395960D01*
X2957092Y-10395960D02*
X2947568Y-10405484D01*
X2947568Y-10405484D02*
X2938044Y-10395960D01*
X2938044Y-10395960D02*
X2947568Y-10386436D01*
X2947568Y-10386436D02*
X2947568Y-10405484D01*
X3052330Y-10405484D02*
X3090425Y-10405484D01*
X3090425Y-10405484D02*
X3109473Y-10395960D01*
X3109473Y-10395960D02*
X3118997Y-10386436D01*
X3118997Y-10386436D02*
X3138044Y-10357865D01*
X3138044Y-10357865D02*
X3147568Y-10319770D01*
X3147568Y-10319770D02*
X3147568Y-10243579D01*
X3147568Y-10243579D02*
X3138044Y-10224531D01*
X3138044Y-10224531D02*
X3128521Y-10215008D01*
X3128521Y-10215008D02*
X3109473Y-10205484D01*
X3109473Y-10205484D02*
X3071378Y-10205484D01*
X3071378Y-10205484D02*
X3052330Y-10215008D01*
X3052330Y-10215008D02*
X3042806Y-10224531D01*
X3042806Y-10224531D02*
X3033283Y-10243579D01*
X3033283Y-10243579D02*
X3033283Y-10291198D01*
X3033283Y-10291198D02*
X3042806Y-10310246D01*
X3042806Y-10310246D02*
X3052330Y-10319770D01*
X3052330Y-10319770D02*
X3071378Y-10329293D01*
X3071378Y-10329293D02*
X3109473Y-10329293D01*
X3109473Y-10329293D02*
X3128521Y-10319770D01*
X3128521Y-10319770D02*
X3138044Y-10310246D01*
X3138044Y-10310246D02*
X3147568Y-10291198D01*
X3271378Y-10205484D02*
X3290425Y-10205484D01*
X3290425Y-10205484D02*
X3309473Y-10215008D01*
X3309473Y-10215008D02*
X3318997Y-10224531D01*
X3318997Y-10224531D02*
X3328521Y-10243579D01*
X3328521Y-10243579D02*
X3338044Y-10281674D01*
X3338044Y-10281674D02*
X3338044Y-10329293D01*
X3338044Y-10329293D02*
X3328521Y-10367389D01*
X3328521Y-10367389D02*
X3318997Y-10386436D01*
X3318997Y-10386436D02*
X3309473Y-10395960D01*
X3309473Y-10395960D02*
X3290425Y-10405484D01*
X3290425Y-10405484D02*
X3271378Y-10405484D01*
X3271378Y-10405484D02*
X3252330Y-10395960D01*
X3252330Y-10395960D02*
X3242806Y-10386436D01*
X3242806Y-10386436D02*
X3233283Y-10367389D01*
X3233283Y-10367389D02*
X3223759Y-10329293D01*
X3223759Y-10329293D02*
X3223759Y-10281674D01*
X3223759Y-10281674D02*
X3233283Y-10243579D01*
X3233283Y-10243579D02*
X3242806Y-10224531D01*
X3242806Y-10224531D02*
X3252330Y-10215008D01*
X3252330Y-10215008D02*
X3271378Y-10205484D01*
X3461854Y-10205484D02*
X3480902Y-10205484D01*
X3480902Y-10205484D02*
X3499949Y-10215008D01*
X3499949Y-10215008D02*
X3509473Y-10224531D01*
X3509473Y-10224531D02*
X3518997Y-10243579D01*
X3518997Y-10243579D02*
X3528521Y-10281674D01*
X3528521Y-10281674D02*
X3528521Y-10329293D01*
X3528521Y-10329293D02*
X3518997Y-10367389D01*
X3518997Y-10367389D02*
X3509473Y-10386436D01*
X3509473Y-10386436D02*
X3499949Y-10395960D01*
X3499949Y-10395960D02*
X3480902Y-10405484D01*
X3480902Y-10405484D02*
X3461854Y-10405484D01*
X3461854Y-10405484D02*
X3442806Y-10395960D01*
X3442806Y-10395960D02*
X3433283Y-10386436D01*
X3433283Y-10386436D02*
X3423759Y-10367389D01*
X3423759Y-10367389D02*
X3414235Y-10329293D01*
X3414235Y-10329293D02*
X3414235Y-10281674D01*
X3414235Y-10281674D02*
X3423759Y-10243579D01*
X3423759Y-10243579D02*
X3433283Y-10224531D01*
X3433283Y-10224531D02*
X3442806Y-10215008D01*
X3442806Y-10215008D02*
X3461854Y-10205484D01*
X3614235Y-10405484D02*
X3614235Y-10272150D01*
X3614235Y-10291198D02*
X3623759Y-10281674D01*
X3623759Y-10281674D02*
X3642806Y-10272150D01*
X3642806Y-10272150D02*
X3671378Y-10272150D01*
X3671378Y-10272150D02*
X3690425Y-10281674D01*
X3690425Y-10281674D02*
X3699949Y-10300722D01*
X3699949Y-10300722D02*
X3699949Y-10405484D01*
X3699949Y-10300722D02*
X3709473Y-10281674D01*
X3709473Y-10281674D02*
X3728521Y-10272150D01*
X3728521Y-10272150D02*
X3757092Y-10272150D01*
X3757092Y-10272150D02*
X3776140Y-10281674D01*
X3776140Y-10281674D02*
X3785664Y-10300722D01*
X3785664Y-10300722D02*
X3785664Y-10405484D01*
X3880902Y-10405484D02*
X3880902Y-10272150D01*
X3880902Y-10291198D02*
X3890425Y-10281674D01*
X3890425Y-10281674D02*
X3909473Y-10272150D01*
X3909473Y-10272150D02*
X3938045Y-10272150D01*
X3938045Y-10272150D02*
X3957092Y-10281674D01*
X3957092Y-10281674D02*
X3966616Y-10300722D01*
X3966616Y-10300722D02*
X3966616Y-10405484D01*
X3966616Y-10300722D02*
X3976140Y-10281674D01*
X3976140Y-10281674D02*
X3995187Y-10272150D01*
X3995187Y-10272150D02*
X4023759Y-10272150D01*
X4023759Y-10272150D02*
X4042806Y-10281674D01*
X4042806Y-10281674D02*
X4052330Y-10300722D01*
X4052330Y-10300722D02*
X4052330Y-10405484D01*
X4442807Y-10195960D02*
X4271378Y-10453103D01*
X4699949Y-10205484D02*
X4718997Y-10205484D01*
X4718997Y-10205484D02*
X4738045Y-10215008D01*
X4738045Y-10215008D02*
X4747569Y-10224531D01*
X4747569Y-10224531D02*
X4757092Y-10243579D01*
X4757092Y-10243579D02*
X4766616Y-10281674D01*
X4766616Y-10281674D02*
X4766616Y-10329293D01*
X4766616Y-10329293D02*
X4757092Y-10367389D01*
X4757092Y-10367389D02*
X4747569Y-10386436D01*
X4747569Y-10386436D02*
X4738045Y-10395960D01*
X4738045Y-10395960D02*
X4718997Y-10405484D01*
X4718997Y-10405484D02*
X4699949Y-10405484D01*
X4699949Y-10405484D02*
X4680902Y-10395960D01*
X4680902Y-10395960D02*
X4671378Y-10386436D01*
X4671378Y-10386436D02*
X4661854Y-10367389D01*
X4661854Y-10367389D02*
X4652330Y-10329293D01*
X4652330Y-10329293D02*
X4652330Y-10281674D01*
X4652330Y-10281674D02*
X4661854Y-10243579D01*
X4661854Y-10243579D02*
X4671378Y-10224531D01*
X4671378Y-10224531D02*
X4680902Y-10215008D01*
X4680902Y-10215008D02*
X4699949Y-10205484D01*
X4852330Y-10386436D02*
X4861854Y-10395960D01*
X4861854Y-10395960D02*
X4852330Y-10405484D01*
X4852330Y-10405484D02*
X4842807Y-10395960D01*
X4842807Y-10395960D02*
X4852330Y-10386436D01*
X4852330Y-10386436D02*
X4852330Y-10405484D01*
X4985664Y-10205484D02*
X5004711Y-10205484D01*
X5004711Y-10205484D02*
X5023759Y-10215008D01*
X5023759Y-10215008D02*
X5033283Y-10224531D01*
X5033283Y-10224531D02*
X5042807Y-10243579D01*
X5042807Y-10243579D02*
X5052330Y-10281674D01*
X5052330Y-10281674D02*
X5052330Y-10329293D01*
X5052330Y-10329293D02*
X5042807Y-10367389D01*
X5042807Y-10367389D02*
X5033283Y-10386436D01*
X5033283Y-10386436D02*
X5023759Y-10395960D01*
X5023759Y-10395960D02*
X5004711Y-10405484D01*
X5004711Y-10405484D02*
X4985664Y-10405484D01*
X4985664Y-10405484D02*
X4966616Y-10395960D01*
X4966616Y-10395960D02*
X4957092Y-10386436D01*
X4957092Y-10386436D02*
X4947569Y-10367389D01*
X4947569Y-10367389D02*
X4938045Y-10329293D01*
X4938045Y-10329293D02*
X4938045Y-10281674D01*
X4938045Y-10281674D02*
X4947569Y-10243579D01*
X4947569Y-10243579D02*
X4957092Y-10224531D01*
X4957092Y-10224531D02*
X4966616Y-10215008D01*
X4966616Y-10215008D02*
X4985664Y-10205484D01*
X5118997Y-10205484D02*
X5242807Y-10205484D01*
X5242807Y-10205484D02*
X5176140Y-10281674D01*
X5176140Y-10281674D02*
X5204711Y-10281674D01*
X5204711Y-10281674D02*
X5223759Y-10291198D01*
X5223759Y-10291198D02*
X5233283Y-10300722D01*
X5233283Y-10300722D02*
X5242807Y-10319770D01*
X5242807Y-10319770D02*
X5242807Y-10367389D01*
X5242807Y-10367389D02*
X5233283Y-10386436D01*
X5233283Y-10386436D02*
X5223759Y-10395960D01*
X5223759Y-10395960D02*
X5204711Y-10405484D01*
X5204711Y-10405484D02*
X5147569Y-10405484D01*
X5147569Y-10405484D02*
X5128521Y-10395960D01*
X5128521Y-10395960D02*
X5118997Y-10386436D01*
X5423759Y-10205484D02*
X5328521Y-10205484D01*
X5328521Y-10205484D02*
X5318997Y-10300722D01*
X5318997Y-10300722D02*
X5328521Y-10291198D01*
X5328521Y-10291198D02*
X5347569Y-10281674D01*
X5347569Y-10281674D02*
X5395188Y-10281674D01*
X5395188Y-10281674D02*
X5414235Y-10291198D01*
X5414235Y-10291198D02*
X5423759Y-10300722D01*
X5423759Y-10300722D02*
X5433283Y-10319770D01*
X5433283Y-10319770D02*
X5433283Y-10367389D01*
X5433283Y-10367389D02*
X5423759Y-10386436D01*
X5423759Y-10386436D02*
X5414235Y-10395960D01*
X5414235Y-10395960D02*
X5395188Y-10405484D01*
X5395188Y-10405484D02*
X5347569Y-10405484D01*
X5347569Y-10405484D02*
X5328521Y-10395960D01*
X5328521Y-10395960D02*
X5318997Y-10386436D01*
X5604711Y-10272150D02*
X5604711Y-10405484D01*
X5557092Y-10195960D02*
X5509473Y-10338817D01*
X5509473Y-10338817D02*
X5633283Y-10338817D01*
X5699949Y-10205484D02*
X5699949Y-10243579D01*
X5776140Y-10205484D02*
X5776140Y-10243579D01*
X6071378Y-10481674D02*
X6061854Y-10472150D01*
X6061854Y-10472150D02*
X6042807Y-10443579D01*
X6042807Y-10443579D02*
X6033283Y-10424531D01*
X6033283Y-10424531D02*
X6023759Y-10395960D01*
X6023759Y-10395960D02*
X6014235Y-10348341D01*
X6014235Y-10348341D02*
X6014235Y-10310246D01*
X6014235Y-10310246D02*
X6023759Y-10262627D01*
X6023759Y-10262627D02*
X6033283Y-10234055D01*
X6033283Y-10234055D02*
X6042807Y-10215008D01*
X6042807Y-10215008D02*
X6061854Y-10186436D01*
X6061854Y-10186436D02*
X6071378Y-10176912D01*
X6233283Y-10272150D02*
X6233283Y-10405484D01*
X6185664Y-10195960D02*
X6138045Y-10338817D01*
X6138045Y-10338817D02*
X6261854Y-10338817D01*
X6490426Y-10405484D02*
X6490426Y-10205484D01*
X6576140Y-10405484D02*
X6576140Y-10300722D01*
X6576140Y-10300722D02*
X6566616Y-10281674D01*
X6566616Y-10281674D02*
X6547569Y-10272150D01*
X6547569Y-10272150D02*
X6518997Y-10272150D01*
X6518997Y-10272150D02*
X6499950Y-10281674D01*
X6499950Y-10281674D02*
X6490426Y-10291198D01*
X6699950Y-10405484D02*
X6680902Y-10395960D01*
X6680902Y-10395960D02*
X6671378Y-10386436D01*
X6671378Y-10386436D02*
X6661854Y-10367389D01*
X6661854Y-10367389D02*
X6661854Y-10310246D01*
X6661854Y-10310246D02*
X6671378Y-10291198D01*
X6671378Y-10291198D02*
X6680902Y-10281674D01*
X6680902Y-10281674D02*
X6699950Y-10272150D01*
X6699950Y-10272150D02*
X6728521Y-10272150D01*
X6728521Y-10272150D02*
X6747569Y-10281674D01*
X6747569Y-10281674D02*
X6757092Y-10291198D01*
X6757092Y-10291198D02*
X6766616Y-10310246D01*
X6766616Y-10310246D02*
X6766616Y-10367389D01*
X6766616Y-10367389D02*
X6757092Y-10386436D01*
X6757092Y-10386436D02*
X6747569Y-10395960D01*
X6747569Y-10395960D02*
X6728521Y-10405484D01*
X6728521Y-10405484D02*
X6699950Y-10405484D01*
X6880902Y-10405484D02*
X6861854Y-10395960D01*
X6861854Y-10395960D02*
X6852331Y-10376912D01*
X6852331Y-10376912D02*
X6852331Y-10205484D01*
X7033283Y-10395960D02*
X7014235Y-10405484D01*
X7014235Y-10405484D02*
X6976140Y-10405484D01*
X6976140Y-10405484D02*
X6957092Y-10395960D01*
X6957092Y-10395960D02*
X6947569Y-10376912D01*
X6947569Y-10376912D02*
X6947569Y-10300722D01*
X6947569Y-10300722D02*
X6957092Y-10281674D01*
X6957092Y-10281674D02*
X6976140Y-10272150D01*
X6976140Y-10272150D02*
X7014235Y-10272150D01*
X7014235Y-10272150D02*
X7033283Y-10281674D01*
X7033283Y-10281674D02*
X7042807Y-10300722D01*
X7042807Y-10300722D02*
X7042807Y-10319770D01*
X7042807Y-10319770D02*
X6947569Y-10338817D01*
X7118997Y-10395960D02*
X7138045Y-10405484D01*
X7138045Y-10405484D02*
X7176140Y-10405484D01*
X7176140Y-10405484D02*
X7195188Y-10395960D01*
X7195188Y-10395960D02*
X7204712Y-10376912D01*
X7204712Y-10376912D02*
X7204712Y-10367389D01*
X7204712Y-10367389D02*
X7195188Y-10348341D01*
X7195188Y-10348341D02*
X7176140Y-10338817D01*
X7176140Y-10338817D02*
X7147569Y-10338817D01*
X7147569Y-10338817D02*
X7128521Y-10329293D01*
X7128521Y-10329293D02*
X7118997Y-10310246D01*
X7118997Y-10310246D02*
X7118997Y-10300722D01*
X7118997Y-10300722D02*
X7128521Y-10281674D01*
X7128521Y-10281674D02*
X7147569Y-10272150D01*
X7147569Y-10272150D02*
X7176140Y-10272150D01*
X7176140Y-10272150D02*
X7195188Y-10281674D01*
X7271378Y-10481674D02*
X7280902Y-10472150D01*
X7280902Y-10472150D02*
X7299950Y-10443579D01*
X7299950Y-10443579D02*
X7309473Y-10424531D01*
X7309473Y-10424531D02*
X7318997Y-10395960D01*
X7318997Y-10395960D02*
X7328521Y-10348341D01*
X7328521Y-10348341D02*
X7328521Y-10310246D01*
X7328521Y-10310246D02*
X7318997Y-10262627D01*
X7318997Y-10262627D02*
X7309473Y-10234055D01*
X7309473Y-10234055D02*
X7299950Y-10215008D01*
X7299950Y-10215008D02*
X7280902Y-10186436D01*
X7280902Y-10186436D02*
X7271378Y-10176912D01*
D11*
X2446315Y-10528000D02*
X2446315Y-10628000D01*
X2396315Y-10578000D02*
X2496315Y-10578000D01*
D10*
X2861854Y-10669484D02*
X2747568Y-10669484D01*
X2804711Y-10669484D02*
X2804711Y-10469484D01*
X2804711Y-10469484D02*
X2785664Y-10498055D01*
X2785664Y-10498055D02*
X2766616Y-10517103D01*
X2766616Y-10517103D02*
X2747568Y-10526627D01*
X2947568Y-10650436D02*
X2957092Y-10659960D01*
X2957092Y-10659960D02*
X2947568Y-10669484D01*
X2947568Y-10669484D02*
X2938044Y-10659960D01*
X2938044Y-10659960D02*
X2947568Y-10650436D01*
X2947568Y-10650436D02*
X2947568Y-10669484D01*
X3080902Y-10469484D02*
X3099949Y-10469484D01*
X3099949Y-10469484D02*
X3118997Y-10479008D01*
X3118997Y-10479008D02*
X3128521Y-10488531D01*
X3128521Y-10488531D02*
X3138044Y-10507579D01*
X3138044Y-10507579D02*
X3147568Y-10545674D01*
X3147568Y-10545674D02*
X3147568Y-10593293D01*
X3147568Y-10593293D02*
X3138044Y-10631389D01*
X3138044Y-10631389D02*
X3128521Y-10650436D01*
X3128521Y-10650436D02*
X3118997Y-10659960D01*
X3118997Y-10659960D02*
X3099949Y-10669484D01*
X3099949Y-10669484D02*
X3080902Y-10669484D01*
X3080902Y-10669484D02*
X3061854Y-10659960D01*
X3061854Y-10659960D02*
X3052330Y-10650436D01*
X3052330Y-10650436D02*
X3042806Y-10631389D01*
X3042806Y-10631389D02*
X3033283Y-10593293D01*
X3033283Y-10593293D02*
X3033283Y-10545674D01*
X3033283Y-10545674D02*
X3042806Y-10507579D01*
X3042806Y-10507579D02*
X3052330Y-10488531D01*
X3052330Y-10488531D02*
X3061854Y-10479008D01*
X3061854Y-10479008D02*
X3080902Y-10469484D01*
X3271378Y-10469484D02*
X3290425Y-10469484D01*
X3290425Y-10469484D02*
X3309473Y-10479008D01*
X3309473Y-10479008D02*
X3318997Y-10488531D01*
X3318997Y-10488531D02*
X3328521Y-10507579D01*
X3328521Y-10507579D02*
X3338044Y-10545674D01*
X3338044Y-10545674D02*
X3338044Y-10593293D01*
X3338044Y-10593293D02*
X3328521Y-10631389D01*
X3328521Y-10631389D02*
X3318997Y-10650436D01*
X3318997Y-10650436D02*
X3309473Y-10659960D01*
X3309473Y-10659960D02*
X3290425Y-10669484D01*
X3290425Y-10669484D02*
X3271378Y-10669484D01*
X3271378Y-10669484D02*
X3252330Y-10659960D01*
X3252330Y-10659960D02*
X3242806Y-10650436D01*
X3242806Y-10650436D02*
X3233283Y-10631389D01*
X3233283Y-10631389D02*
X3223759Y-10593293D01*
X3223759Y-10593293D02*
X3223759Y-10545674D01*
X3223759Y-10545674D02*
X3233283Y-10507579D01*
X3233283Y-10507579D02*
X3242806Y-10488531D01*
X3242806Y-10488531D02*
X3252330Y-10479008D01*
X3252330Y-10479008D02*
X3271378Y-10469484D01*
X3461854Y-10469484D02*
X3480902Y-10469484D01*
X3480902Y-10469484D02*
X3499949Y-10479008D01*
X3499949Y-10479008D02*
X3509473Y-10488531D01*
X3509473Y-10488531D02*
X3518997Y-10507579D01*
X3518997Y-10507579D02*
X3528521Y-10545674D01*
X3528521Y-10545674D02*
X3528521Y-10593293D01*
X3528521Y-10593293D02*
X3518997Y-10631389D01*
X3518997Y-10631389D02*
X3509473Y-10650436D01*
X3509473Y-10650436D02*
X3499949Y-10659960D01*
X3499949Y-10659960D02*
X3480902Y-10669484D01*
X3480902Y-10669484D02*
X3461854Y-10669484D01*
X3461854Y-10669484D02*
X3442806Y-10659960D01*
X3442806Y-10659960D02*
X3433283Y-10650436D01*
X3433283Y-10650436D02*
X3423759Y-10631389D01*
X3423759Y-10631389D02*
X3414235Y-10593293D01*
X3414235Y-10593293D02*
X3414235Y-10545674D01*
X3414235Y-10545674D02*
X3423759Y-10507579D01*
X3423759Y-10507579D02*
X3433283Y-10488531D01*
X3433283Y-10488531D02*
X3442806Y-10479008D01*
X3442806Y-10479008D02*
X3461854Y-10469484D01*
X3614235Y-10669484D02*
X3614235Y-10536150D01*
X3614235Y-10555198D02*
X3623759Y-10545674D01*
X3623759Y-10545674D02*
X3642806Y-10536150D01*
X3642806Y-10536150D02*
X3671378Y-10536150D01*
X3671378Y-10536150D02*
X3690425Y-10545674D01*
X3690425Y-10545674D02*
X3699949Y-10564722D01*
X3699949Y-10564722D02*
X3699949Y-10669484D01*
X3699949Y-10564722D02*
X3709473Y-10545674D01*
X3709473Y-10545674D02*
X3728521Y-10536150D01*
X3728521Y-10536150D02*
X3757092Y-10536150D01*
X3757092Y-10536150D02*
X3776140Y-10545674D01*
X3776140Y-10545674D02*
X3785664Y-10564722D01*
X3785664Y-10564722D02*
X3785664Y-10669484D01*
X3880902Y-10669484D02*
X3880902Y-10536150D01*
X3880902Y-10555198D02*
X3890425Y-10545674D01*
X3890425Y-10545674D02*
X3909473Y-10536150D01*
X3909473Y-10536150D02*
X3938045Y-10536150D01*
X3938045Y-10536150D02*
X3957092Y-10545674D01*
X3957092Y-10545674D02*
X3966616Y-10564722D01*
X3966616Y-10564722D02*
X3966616Y-10669484D01*
X3966616Y-10564722D02*
X3976140Y-10545674D01*
X3976140Y-10545674D02*
X3995187Y-10536150D01*
X3995187Y-10536150D02*
X4023759Y-10536150D01*
X4023759Y-10536150D02*
X4042806Y-10545674D01*
X4042806Y-10545674D02*
X4052330Y-10564722D01*
X4052330Y-10564722D02*
X4052330Y-10669484D01*
X4442807Y-10459960D02*
X4271378Y-10717103D01*
X4699949Y-10469484D02*
X4718997Y-10469484D01*
X4718997Y-10469484D02*
X4738045Y-10479008D01*
X4738045Y-10479008D02*
X4747569Y-10488531D01*
X4747569Y-10488531D02*
X4757092Y-10507579D01*
X4757092Y-10507579D02*
X4766616Y-10545674D01*
X4766616Y-10545674D02*
X4766616Y-10593293D01*
X4766616Y-10593293D02*
X4757092Y-10631389D01*
X4757092Y-10631389D02*
X4747569Y-10650436D01*
X4747569Y-10650436D02*
X4738045Y-10659960D01*
X4738045Y-10659960D02*
X4718997Y-10669484D01*
X4718997Y-10669484D02*
X4699949Y-10669484D01*
X4699949Y-10669484D02*
X4680902Y-10659960D01*
X4680902Y-10659960D02*
X4671378Y-10650436D01*
X4671378Y-10650436D02*
X4661854Y-10631389D01*
X4661854Y-10631389D02*
X4652330Y-10593293D01*
X4652330Y-10593293D02*
X4652330Y-10545674D01*
X4652330Y-10545674D02*
X4661854Y-10507579D01*
X4661854Y-10507579D02*
X4671378Y-10488531D01*
X4671378Y-10488531D02*
X4680902Y-10479008D01*
X4680902Y-10479008D02*
X4699949Y-10469484D01*
X4852330Y-10650436D02*
X4861854Y-10659960D01*
X4861854Y-10659960D02*
X4852330Y-10669484D01*
X4852330Y-10669484D02*
X4842807Y-10659960D01*
X4842807Y-10659960D02*
X4852330Y-10650436D01*
X4852330Y-10650436D02*
X4852330Y-10669484D01*
X4985664Y-10469484D02*
X5004711Y-10469484D01*
X5004711Y-10469484D02*
X5023759Y-10479008D01*
X5023759Y-10479008D02*
X5033283Y-10488531D01*
X5033283Y-10488531D02*
X5042807Y-10507579D01*
X5042807Y-10507579D02*
X5052330Y-10545674D01*
X5052330Y-10545674D02*
X5052330Y-10593293D01*
X5052330Y-10593293D02*
X5042807Y-10631389D01*
X5042807Y-10631389D02*
X5033283Y-10650436D01*
X5033283Y-10650436D02*
X5023759Y-10659960D01*
X5023759Y-10659960D02*
X5004711Y-10669484D01*
X5004711Y-10669484D02*
X4985664Y-10669484D01*
X4985664Y-10669484D02*
X4966616Y-10659960D01*
X4966616Y-10659960D02*
X4957092Y-10650436D01*
X4957092Y-10650436D02*
X4947569Y-10631389D01*
X4947569Y-10631389D02*
X4938045Y-10593293D01*
X4938045Y-10593293D02*
X4938045Y-10545674D01*
X4938045Y-10545674D02*
X4947569Y-10507579D01*
X4947569Y-10507579D02*
X4957092Y-10488531D01*
X4957092Y-10488531D02*
X4966616Y-10479008D01*
X4966616Y-10479008D02*
X4985664Y-10469484D01*
X5118997Y-10469484D02*
X5242807Y-10469484D01*
X5242807Y-10469484D02*
X5176140Y-10545674D01*
X5176140Y-10545674D02*
X5204711Y-10545674D01*
X5204711Y-10545674D02*
X5223759Y-10555198D01*
X5223759Y-10555198D02*
X5233283Y-10564722D01*
X5233283Y-10564722D02*
X5242807Y-10583770D01*
X5242807Y-10583770D02*
X5242807Y-10631389D01*
X5242807Y-10631389D02*
X5233283Y-10650436D01*
X5233283Y-10650436D02*
X5223759Y-10659960D01*
X5223759Y-10659960D02*
X5204711Y-10669484D01*
X5204711Y-10669484D02*
X5147569Y-10669484D01*
X5147569Y-10669484D02*
X5128521Y-10659960D01*
X5128521Y-10659960D02*
X5118997Y-10650436D01*
X5338045Y-10669484D02*
X5376140Y-10669484D01*
X5376140Y-10669484D02*
X5395188Y-10659960D01*
X5395188Y-10659960D02*
X5404711Y-10650436D01*
X5404711Y-10650436D02*
X5423759Y-10621865D01*
X5423759Y-10621865D02*
X5433283Y-10583770D01*
X5433283Y-10583770D02*
X5433283Y-10507579D01*
X5433283Y-10507579D02*
X5423759Y-10488531D01*
X5423759Y-10488531D02*
X5414235Y-10479008D01*
X5414235Y-10479008D02*
X5395188Y-10469484D01*
X5395188Y-10469484D02*
X5357092Y-10469484D01*
X5357092Y-10469484D02*
X5338045Y-10479008D01*
X5338045Y-10479008D02*
X5328521Y-10488531D01*
X5328521Y-10488531D02*
X5318997Y-10507579D01*
X5318997Y-10507579D02*
X5318997Y-10555198D01*
X5318997Y-10555198D02*
X5328521Y-10574246D01*
X5328521Y-10574246D02*
X5338045Y-10583770D01*
X5338045Y-10583770D02*
X5357092Y-10593293D01*
X5357092Y-10593293D02*
X5395188Y-10593293D01*
X5395188Y-10593293D02*
X5414235Y-10583770D01*
X5414235Y-10583770D02*
X5423759Y-10574246D01*
X5423759Y-10574246D02*
X5433283Y-10555198D01*
X5604711Y-10536150D02*
X5604711Y-10669484D01*
X5557092Y-10459960D02*
X5509473Y-10602817D01*
X5509473Y-10602817D02*
X5633283Y-10602817D01*
X5699949Y-10469484D02*
X5699949Y-10507579D01*
X5776140Y-10469484D02*
X5776140Y-10507579D01*
X6071378Y-10745674D02*
X6061854Y-10736150D01*
X6061854Y-10736150D02*
X6042807Y-10707579D01*
X6042807Y-10707579D02*
X6033283Y-10688531D01*
X6033283Y-10688531D02*
X6023759Y-10659960D01*
X6023759Y-10659960D02*
X6014235Y-10612341D01*
X6014235Y-10612341D02*
X6014235Y-10574246D01*
X6014235Y-10574246D02*
X6023759Y-10526627D01*
X6023759Y-10526627D02*
X6033283Y-10498055D01*
X6033283Y-10498055D02*
X6042807Y-10479008D01*
X6042807Y-10479008D02*
X6061854Y-10450436D01*
X6061854Y-10450436D02*
X6071378Y-10440912D01*
X6233283Y-10469484D02*
X6195188Y-10469484D01*
X6195188Y-10469484D02*
X6176140Y-10479008D01*
X6176140Y-10479008D02*
X6166616Y-10488531D01*
X6166616Y-10488531D02*
X6147569Y-10517103D01*
X6147569Y-10517103D02*
X6138045Y-10555198D01*
X6138045Y-10555198D02*
X6138045Y-10631389D01*
X6138045Y-10631389D02*
X6147569Y-10650436D01*
X6147569Y-10650436D02*
X6157092Y-10659960D01*
X6157092Y-10659960D02*
X6176140Y-10669484D01*
X6176140Y-10669484D02*
X6214235Y-10669484D01*
X6214235Y-10669484D02*
X6233283Y-10659960D01*
X6233283Y-10659960D02*
X6242807Y-10650436D01*
X6242807Y-10650436D02*
X6252330Y-10631389D01*
X6252330Y-10631389D02*
X6252330Y-10583770D01*
X6252330Y-10583770D02*
X6242807Y-10564722D01*
X6242807Y-10564722D02*
X6233283Y-10555198D01*
X6233283Y-10555198D02*
X6214235Y-10545674D01*
X6214235Y-10545674D02*
X6176140Y-10545674D01*
X6176140Y-10545674D02*
X6157092Y-10555198D01*
X6157092Y-10555198D02*
X6147569Y-10564722D01*
X6147569Y-10564722D02*
X6138045Y-10583770D01*
X6490426Y-10669484D02*
X6490426Y-10469484D01*
X6576140Y-10669484D02*
X6576140Y-10564722D01*
X6576140Y-10564722D02*
X6566616Y-10545674D01*
X6566616Y-10545674D02*
X6547569Y-10536150D01*
X6547569Y-10536150D02*
X6518997Y-10536150D01*
X6518997Y-10536150D02*
X6499950Y-10545674D01*
X6499950Y-10545674D02*
X6490426Y-10555198D01*
X6699950Y-10669484D02*
X6680902Y-10659960D01*
X6680902Y-10659960D02*
X6671378Y-10650436D01*
X6671378Y-10650436D02*
X6661854Y-10631389D01*
X6661854Y-10631389D02*
X6661854Y-10574246D01*
X6661854Y-10574246D02*
X6671378Y-10555198D01*
X6671378Y-10555198D02*
X6680902Y-10545674D01*
X6680902Y-10545674D02*
X6699950Y-10536150D01*
X6699950Y-10536150D02*
X6728521Y-10536150D01*
X6728521Y-10536150D02*
X6747569Y-10545674D01*
X6747569Y-10545674D02*
X6757092Y-10555198D01*
X6757092Y-10555198D02*
X6766616Y-10574246D01*
X6766616Y-10574246D02*
X6766616Y-10631389D01*
X6766616Y-10631389D02*
X6757092Y-10650436D01*
X6757092Y-10650436D02*
X6747569Y-10659960D01*
X6747569Y-10659960D02*
X6728521Y-10669484D01*
X6728521Y-10669484D02*
X6699950Y-10669484D01*
X6880902Y-10669484D02*
X6861854Y-10659960D01*
X6861854Y-10659960D02*
X6852331Y-10640912D01*
X6852331Y-10640912D02*
X6852331Y-10469484D01*
X7033283Y-10659960D02*
X7014235Y-10669484D01*
X7014235Y-10669484D02*
X6976140Y-10669484D01*
X6976140Y-10669484D02*
X6957092Y-10659960D01*
X6957092Y-10659960D02*
X6947569Y-10640912D01*
X6947569Y-10640912D02*
X6947569Y-10564722D01*
X6947569Y-10564722D02*
X6957092Y-10545674D01*
X6957092Y-10545674D02*
X6976140Y-10536150D01*
X6976140Y-10536150D02*
X7014235Y-10536150D01*
X7014235Y-10536150D02*
X7033283Y-10545674D01*
X7033283Y-10545674D02*
X7042807Y-10564722D01*
X7042807Y-10564722D02*
X7042807Y-10583770D01*
X7042807Y-10583770D02*
X6947569Y-10602817D01*
X7118997Y-10659960D02*
X7138045Y-10669484D01*
X7138045Y-10669484D02*
X7176140Y-10669484D01*
X7176140Y-10669484D02*
X7195188Y-10659960D01*
X7195188Y-10659960D02*
X7204712Y-10640912D01*
X7204712Y-10640912D02*
X7204712Y-10631389D01*
X7204712Y-10631389D02*
X7195188Y-10612341D01*
X7195188Y-10612341D02*
X7176140Y-10602817D01*
X7176140Y-10602817D02*
X7147569Y-10602817D01*
X7147569Y-10602817D02*
X7128521Y-10593293D01*
X7128521Y-10593293D02*
X7118997Y-10574246D01*
X7118997Y-10574246D02*
X7118997Y-10564722D01*
X7118997Y-10564722D02*
X7128521Y-10545674D01*
X7128521Y-10545674D02*
X7147569Y-10536150D01*
X7147569Y-10536150D02*
X7176140Y-10536150D01*
X7176140Y-10536150D02*
X7195188Y-10545674D01*
X7271378Y-10745674D02*
X7280902Y-10736150D01*
X7280902Y-10736150D02*
X7299950Y-10707579D01*
X7299950Y-10707579D02*
X7309473Y-10688531D01*
X7309473Y-10688531D02*
X7318997Y-10659960D01*
X7318997Y-10659960D02*
X7328521Y-10612341D01*
X7328521Y-10612341D02*
X7328521Y-10574246D01*
X7328521Y-10574246D02*
X7318997Y-10526627D01*
X7318997Y-10526627D02*
X7309473Y-10498055D01*
X7309473Y-10498055D02*
X7299950Y-10479008D01*
X7299950Y-10479008D02*
X7280902Y-10450436D01*
X7280902Y-10450436D02*
X7271378Y-10440912D01*
D12*
X2480207Y-10880891D02*
X2480207Y-10803109D01*
X2402424Y-10803109D01*
X2402424Y-10880891D01*
X2480207Y-10880891D01*
D10*
X2861854Y-10933484D02*
X2747568Y-10933484D01*
X2804711Y-10933484D02*
X2804711Y-10733484D01*
X2804711Y-10733484D02*
X2785664Y-10762055D01*
X2785664Y-10762055D02*
X2766616Y-10781103D01*
X2766616Y-10781103D02*
X2747568Y-10790627D01*
X2947568Y-10914436D02*
X2957092Y-10923960D01*
X2957092Y-10923960D02*
X2947568Y-10933484D01*
X2947568Y-10933484D02*
X2938044Y-10923960D01*
X2938044Y-10923960D02*
X2947568Y-10914436D01*
X2947568Y-10914436D02*
X2947568Y-10933484D01*
X3147568Y-10933484D02*
X3033283Y-10933484D01*
X3090425Y-10933484D02*
X3090425Y-10733484D01*
X3090425Y-10733484D02*
X3071378Y-10762055D01*
X3071378Y-10762055D02*
X3052330Y-10781103D01*
X3052330Y-10781103D02*
X3033283Y-10790627D01*
X3271378Y-10733484D02*
X3290425Y-10733484D01*
X3290425Y-10733484D02*
X3309473Y-10743008D01*
X3309473Y-10743008D02*
X3318997Y-10752531D01*
X3318997Y-10752531D02*
X3328521Y-10771579D01*
X3328521Y-10771579D02*
X3338044Y-10809674D01*
X3338044Y-10809674D02*
X3338044Y-10857293D01*
X3338044Y-10857293D02*
X3328521Y-10895389D01*
X3328521Y-10895389D02*
X3318997Y-10914436D01*
X3318997Y-10914436D02*
X3309473Y-10923960D01*
X3309473Y-10923960D02*
X3290425Y-10933484D01*
X3290425Y-10933484D02*
X3271378Y-10933484D01*
X3271378Y-10933484D02*
X3252330Y-10923960D01*
X3252330Y-10923960D02*
X3242806Y-10914436D01*
X3242806Y-10914436D02*
X3233283Y-10895389D01*
X3233283Y-10895389D02*
X3223759Y-10857293D01*
X3223759Y-10857293D02*
X3223759Y-10809674D01*
X3223759Y-10809674D02*
X3233283Y-10771579D01*
X3233283Y-10771579D02*
X3242806Y-10752531D01*
X3242806Y-10752531D02*
X3252330Y-10743008D01*
X3252330Y-10743008D02*
X3271378Y-10733484D01*
X3461854Y-10733484D02*
X3480902Y-10733484D01*
X3480902Y-10733484D02*
X3499949Y-10743008D01*
X3499949Y-10743008D02*
X3509473Y-10752531D01*
X3509473Y-10752531D02*
X3518997Y-10771579D01*
X3518997Y-10771579D02*
X3528521Y-10809674D01*
X3528521Y-10809674D02*
X3528521Y-10857293D01*
X3528521Y-10857293D02*
X3518997Y-10895389D01*
X3518997Y-10895389D02*
X3509473Y-10914436D01*
X3509473Y-10914436D02*
X3499949Y-10923960D01*
X3499949Y-10923960D02*
X3480902Y-10933484D01*
X3480902Y-10933484D02*
X3461854Y-10933484D01*
X3461854Y-10933484D02*
X3442806Y-10923960D01*
X3442806Y-10923960D02*
X3433283Y-10914436D01*
X3433283Y-10914436D02*
X3423759Y-10895389D01*
X3423759Y-10895389D02*
X3414235Y-10857293D01*
X3414235Y-10857293D02*
X3414235Y-10809674D01*
X3414235Y-10809674D02*
X3423759Y-10771579D01*
X3423759Y-10771579D02*
X3433283Y-10752531D01*
X3433283Y-10752531D02*
X3442806Y-10743008D01*
X3442806Y-10743008D02*
X3461854Y-10733484D01*
X3614235Y-10933484D02*
X3614235Y-10800150D01*
X3614235Y-10819198D02*
X3623759Y-10809674D01*
X3623759Y-10809674D02*
X3642806Y-10800150D01*
X3642806Y-10800150D02*
X3671378Y-10800150D01*
X3671378Y-10800150D02*
X3690425Y-10809674D01*
X3690425Y-10809674D02*
X3699949Y-10828722D01*
X3699949Y-10828722D02*
X3699949Y-10933484D01*
X3699949Y-10828722D02*
X3709473Y-10809674D01*
X3709473Y-10809674D02*
X3728521Y-10800150D01*
X3728521Y-10800150D02*
X3757092Y-10800150D01*
X3757092Y-10800150D02*
X3776140Y-10809674D01*
X3776140Y-10809674D02*
X3785664Y-10828722D01*
X3785664Y-10828722D02*
X3785664Y-10933484D01*
X3880902Y-10933484D02*
X3880902Y-10800150D01*
X3880902Y-10819198D02*
X3890425Y-10809674D01*
X3890425Y-10809674D02*
X3909473Y-10800150D01*
X3909473Y-10800150D02*
X3938045Y-10800150D01*
X3938045Y-10800150D02*
X3957092Y-10809674D01*
X3957092Y-10809674D02*
X3966616Y-10828722D01*
X3966616Y-10828722D02*
X3966616Y-10933484D01*
X3966616Y-10828722D02*
X3976140Y-10809674D01*
X3976140Y-10809674D02*
X3995187Y-10800150D01*
X3995187Y-10800150D02*
X4023759Y-10800150D01*
X4023759Y-10800150D02*
X4042806Y-10809674D01*
X4042806Y-10809674D02*
X4052330Y-10828722D01*
X4052330Y-10828722D02*
X4052330Y-10933484D01*
X4442807Y-10723960D02*
X4271378Y-10981103D01*
X4699949Y-10733484D02*
X4718997Y-10733484D01*
X4718997Y-10733484D02*
X4738045Y-10743008D01*
X4738045Y-10743008D02*
X4747569Y-10752531D01*
X4747569Y-10752531D02*
X4757092Y-10771579D01*
X4757092Y-10771579D02*
X4766616Y-10809674D01*
X4766616Y-10809674D02*
X4766616Y-10857293D01*
X4766616Y-10857293D02*
X4757092Y-10895389D01*
X4757092Y-10895389D02*
X4747569Y-10914436D01*
X4747569Y-10914436D02*
X4738045Y-10923960D01*
X4738045Y-10923960D02*
X4718997Y-10933484D01*
X4718997Y-10933484D02*
X4699949Y-10933484D01*
X4699949Y-10933484D02*
X4680902Y-10923960D01*
X4680902Y-10923960D02*
X4671378Y-10914436D01*
X4671378Y-10914436D02*
X4661854Y-10895389D01*
X4661854Y-10895389D02*
X4652330Y-10857293D01*
X4652330Y-10857293D02*
X4652330Y-10809674D01*
X4652330Y-10809674D02*
X4661854Y-10771579D01*
X4661854Y-10771579D02*
X4671378Y-10752531D01*
X4671378Y-10752531D02*
X4680902Y-10743008D01*
X4680902Y-10743008D02*
X4699949Y-10733484D01*
X4852330Y-10914436D02*
X4861854Y-10923960D01*
X4861854Y-10923960D02*
X4852330Y-10933484D01*
X4852330Y-10933484D02*
X4842807Y-10923960D01*
X4842807Y-10923960D02*
X4852330Y-10914436D01*
X4852330Y-10914436D02*
X4852330Y-10933484D01*
X4985664Y-10733484D02*
X5004711Y-10733484D01*
X5004711Y-10733484D02*
X5023759Y-10743008D01*
X5023759Y-10743008D02*
X5033283Y-10752531D01*
X5033283Y-10752531D02*
X5042807Y-10771579D01*
X5042807Y-10771579D02*
X5052330Y-10809674D01*
X5052330Y-10809674D02*
X5052330Y-10857293D01*
X5052330Y-10857293D02*
X5042807Y-10895389D01*
X5042807Y-10895389D02*
X5033283Y-10914436D01*
X5033283Y-10914436D02*
X5023759Y-10923960D01*
X5023759Y-10923960D02*
X5004711Y-10933484D01*
X5004711Y-10933484D02*
X4985664Y-10933484D01*
X4985664Y-10933484D02*
X4966616Y-10923960D01*
X4966616Y-10923960D02*
X4957092Y-10914436D01*
X4957092Y-10914436D02*
X4947569Y-10895389D01*
X4947569Y-10895389D02*
X4938045Y-10857293D01*
X4938045Y-10857293D02*
X4938045Y-10809674D01*
X4938045Y-10809674D02*
X4947569Y-10771579D01*
X4947569Y-10771579D02*
X4957092Y-10752531D01*
X4957092Y-10752531D02*
X4966616Y-10743008D01*
X4966616Y-10743008D02*
X4985664Y-10733484D01*
X5223759Y-10800150D02*
X5223759Y-10933484D01*
X5176140Y-10723960D02*
X5128521Y-10866817D01*
X5128521Y-10866817D02*
X5252330Y-10866817D01*
X5309473Y-10733484D02*
X5433283Y-10733484D01*
X5433283Y-10733484D02*
X5366616Y-10809674D01*
X5366616Y-10809674D02*
X5395188Y-10809674D01*
X5395188Y-10809674D02*
X5414235Y-10819198D01*
X5414235Y-10819198D02*
X5423759Y-10828722D01*
X5423759Y-10828722D02*
X5433283Y-10847770D01*
X5433283Y-10847770D02*
X5433283Y-10895389D01*
X5433283Y-10895389D02*
X5423759Y-10914436D01*
X5423759Y-10914436D02*
X5414235Y-10923960D01*
X5414235Y-10923960D02*
X5395188Y-10933484D01*
X5395188Y-10933484D02*
X5338045Y-10933484D01*
X5338045Y-10933484D02*
X5318997Y-10923960D01*
X5318997Y-10923960D02*
X5309473Y-10914436D01*
X5499950Y-10733484D02*
X5623759Y-10733484D01*
X5623759Y-10733484D02*
X5557092Y-10809674D01*
X5557092Y-10809674D02*
X5585664Y-10809674D01*
X5585664Y-10809674D02*
X5604711Y-10819198D01*
X5604711Y-10819198D02*
X5614235Y-10828722D01*
X5614235Y-10828722D02*
X5623759Y-10847770D01*
X5623759Y-10847770D02*
X5623759Y-10895389D01*
X5623759Y-10895389D02*
X5614235Y-10914436D01*
X5614235Y-10914436D02*
X5604711Y-10923960D01*
X5604711Y-10923960D02*
X5585664Y-10933484D01*
X5585664Y-10933484D02*
X5528521Y-10933484D01*
X5528521Y-10933484D02*
X5509473Y-10923960D01*
X5509473Y-10923960D02*
X5499950Y-10914436D01*
X5699949Y-10733484D02*
X5699949Y-10771579D01*
X5776140Y-10733484D02*
X5776140Y-10771579D01*
X6071378Y-11009674D02*
X6061854Y-11000150D01*
X6061854Y-11000150D02*
X6042807Y-10971579D01*
X6042807Y-10971579D02*
X6033283Y-10952531D01*
X6033283Y-10952531D02*
X6023759Y-10923960D01*
X6023759Y-10923960D02*
X6014235Y-10876341D01*
X6014235Y-10876341D02*
X6014235Y-10838246D01*
X6014235Y-10838246D02*
X6023759Y-10790627D01*
X6023759Y-10790627D02*
X6033283Y-10762055D01*
X6033283Y-10762055D02*
X6042807Y-10743008D01*
X6042807Y-10743008D02*
X6061854Y-10714436D01*
X6061854Y-10714436D02*
X6071378Y-10704912D01*
X6138045Y-10752531D02*
X6147569Y-10743008D01*
X6147569Y-10743008D02*
X6166616Y-10733484D01*
X6166616Y-10733484D02*
X6214235Y-10733484D01*
X6214235Y-10733484D02*
X6233283Y-10743008D01*
X6233283Y-10743008D02*
X6242807Y-10752531D01*
X6242807Y-10752531D02*
X6252330Y-10771579D01*
X6252330Y-10771579D02*
X6252330Y-10790627D01*
X6252330Y-10790627D02*
X6242807Y-10819198D01*
X6242807Y-10819198D02*
X6128521Y-10933484D01*
X6128521Y-10933484D02*
X6252330Y-10933484D01*
X6366616Y-10819198D02*
X6347569Y-10809674D01*
X6347569Y-10809674D02*
X6338045Y-10800150D01*
X6338045Y-10800150D02*
X6328521Y-10781103D01*
X6328521Y-10781103D02*
X6328521Y-10771579D01*
X6328521Y-10771579D02*
X6338045Y-10752531D01*
X6338045Y-10752531D02*
X6347569Y-10743008D01*
X6347569Y-10743008D02*
X6366616Y-10733484D01*
X6366616Y-10733484D02*
X6404711Y-10733484D01*
X6404711Y-10733484D02*
X6423759Y-10743008D01*
X6423759Y-10743008D02*
X6433283Y-10752531D01*
X6433283Y-10752531D02*
X6442807Y-10771579D01*
X6442807Y-10771579D02*
X6442807Y-10781103D01*
X6442807Y-10781103D02*
X6433283Y-10800150D01*
X6433283Y-10800150D02*
X6423759Y-10809674D01*
X6423759Y-10809674D02*
X6404711Y-10819198D01*
X6404711Y-10819198D02*
X6366616Y-10819198D01*
X6366616Y-10819198D02*
X6347569Y-10828722D01*
X6347569Y-10828722D02*
X6338045Y-10838246D01*
X6338045Y-10838246D02*
X6328521Y-10857293D01*
X6328521Y-10857293D02*
X6328521Y-10895389D01*
X6328521Y-10895389D02*
X6338045Y-10914436D01*
X6338045Y-10914436D02*
X6347569Y-10923960D01*
X6347569Y-10923960D02*
X6366616Y-10933484D01*
X6366616Y-10933484D02*
X6404711Y-10933484D01*
X6404711Y-10933484D02*
X6423759Y-10923960D01*
X6423759Y-10923960D02*
X6433283Y-10914436D01*
X6433283Y-10914436D02*
X6442807Y-10895389D01*
X6442807Y-10895389D02*
X6442807Y-10857293D01*
X6442807Y-10857293D02*
X6433283Y-10838246D01*
X6433283Y-10838246D02*
X6423759Y-10828722D01*
X6423759Y-10828722D02*
X6404711Y-10819198D01*
X6680902Y-10933484D02*
X6680902Y-10733484D01*
X6766616Y-10933484D02*
X6766616Y-10828722D01*
X6766616Y-10828722D02*
X6757092Y-10809674D01*
X6757092Y-10809674D02*
X6738045Y-10800150D01*
X6738045Y-10800150D02*
X6709473Y-10800150D01*
X6709473Y-10800150D02*
X6690426Y-10809674D01*
X6690426Y-10809674D02*
X6680902Y-10819198D01*
X6890426Y-10933484D02*
X6871378Y-10923960D01*
X6871378Y-10923960D02*
X6861854Y-10914436D01*
X6861854Y-10914436D02*
X6852331Y-10895389D01*
X6852331Y-10895389D02*
X6852331Y-10838246D01*
X6852331Y-10838246D02*
X6861854Y-10819198D01*
X6861854Y-10819198D02*
X6871378Y-10809674D01*
X6871378Y-10809674D02*
X6890426Y-10800150D01*
X6890426Y-10800150D02*
X6918997Y-10800150D01*
X6918997Y-10800150D02*
X6938045Y-10809674D01*
X6938045Y-10809674D02*
X6947569Y-10819198D01*
X6947569Y-10819198D02*
X6957092Y-10838246D01*
X6957092Y-10838246D02*
X6957092Y-10895389D01*
X6957092Y-10895389D02*
X6947569Y-10914436D01*
X6947569Y-10914436D02*
X6938045Y-10923960D01*
X6938045Y-10923960D02*
X6918997Y-10933484D01*
X6918997Y-10933484D02*
X6890426Y-10933484D01*
X7071378Y-10933484D02*
X7052331Y-10923960D01*
X7052331Y-10923960D02*
X7042807Y-10904912D01*
X7042807Y-10904912D02*
X7042807Y-10733484D01*
X7223759Y-10923960D02*
X7204712Y-10933484D01*
X7204712Y-10933484D02*
X7166616Y-10933484D01*
X7166616Y-10933484D02*
X7147569Y-10923960D01*
X7147569Y-10923960D02*
X7138045Y-10904912D01*
X7138045Y-10904912D02*
X7138045Y-10828722D01*
X7138045Y-10828722D02*
X7147569Y-10809674D01*
X7147569Y-10809674D02*
X7166616Y-10800150D01*
X7166616Y-10800150D02*
X7204712Y-10800150D01*
X7204712Y-10800150D02*
X7223759Y-10809674D01*
X7223759Y-10809674D02*
X7233283Y-10828722D01*
X7233283Y-10828722D02*
X7233283Y-10847770D01*
X7233283Y-10847770D02*
X7138045Y-10866817D01*
X7309473Y-10923960D02*
X7328521Y-10933484D01*
X7328521Y-10933484D02*
X7366616Y-10933484D01*
X7366616Y-10933484D02*
X7385664Y-10923960D01*
X7385664Y-10923960D02*
X7395188Y-10904912D01*
X7395188Y-10904912D02*
X7395188Y-10895389D01*
X7395188Y-10895389D02*
X7385664Y-10876341D01*
X7385664Y-10876341D02*
X7366616Y-10866817D01*
X7366616Y-10866817D02*
X7338045Y-10866817D01*
X7338045Y-10866817D02*
X7318997Y-10857293D01*
X7318997Y-10857293D02*
X7309473Y-10838246D01*
X7309473Y-10838246D02*
X7309473Y-10828722D01*
X7309473Y-10828722D02*
X7318997Y-10809674D01*
X7318997Y-10809674D02*
X7338045Y-10800150D01*
X7338045Y-10800150D02*
X7366616Y-10800150D01*
X7366616Y-10800150D02*
X7385664Y-10809674D01*
X7461854Y-11009674D02*
X7471378Y-11000150D01*
X7471378Y-11000150D02*
X7490426Y-10971579D01*
X7490426Y-10971579D02*
X7499950Y-10952531D01*
X7499950Y-10952531D02*
X7509473Y-10923960D01*
X7509473Y-10923960D02*
X7518997Y-10876341D01*
X7518997Y-10876341D02*
X7518997Y-10838246D01*
X7518997Y-10838246D02*
X7509473Y-10790627D01*
X7509473Y-10790627D02*
X7499950Y-10762055D01*
X7499950Y-10762055D02*
X7490426Y-10743008D01*
X7490426Y-10743008D02*
X7471378Y-10714436D01*
X7471378Y-10714436D02*
X7461854Y-10704912D01*
X2396315Y-11206000D02*
X2496315Y-11106000D01*
X2396315Y-11006000D01*
X2296315Y-11106000D01*
X2396315Y-11206000D01*
X2747568Y-11016531D02*
X2757092Y-11007008D01*
X2757092Y-11007008D02*
X2776140Y-10997484D01*
X2776140Y-10997484D02*
X2823759Y-10997484D01*
X2823759Y-10997484D02*
X2842806Y-11007008D01*
X2842806Y-11007008D02*
X2852330Y-11016531D01*
X2852330Y-11016531D02*
X2861854Y-11035579D01*
X2861854Y-11035579D02*
X2861854Y-11054627D01*
X2861854Y-11054627D02*
X2852330Y-11083198D01*
X2852330Y-11083198D02*
X2738045Y-11197484D01*
X2738045Y-11197484D02*
X2861854Y-11197484D01*
X2947568Y-11178436D02*
X2957092Y-11187960D01*
X2957092Y-11187960D02*
X2947568Y-11197484D01*
X2947568Y-11197484D02*
X2938044Y-11187960D01*
X2938044Y-11187960D02*
X2947568Y-11178436D01*
X2947568Y-11178436D02*
X2947568Y-11197484D01*
X3147568Y-11197484D02*
X3033283Y-11197484D01*
X3090425Y-11197484D02*
X3090425Y-10997484D01*
X3090425Y-10997484D02*
X3071378Y-11026055D01*
X3071378Y-11026055D02*
X3052330Y-11045103D01*
X3052330Y-11045103D02*
X3033283Y-11054627D01*
X3271378Y-10997484D02*
X3290425Y-10997484D01*
X3290425Y-10997484D02*
X3309473Y-11007008D01*
X3309473Y-11007008D02*
X3318997Y-11016531D01*
X3318997Y-11016531D02*
X3328521Y-11035579D01*
X3328521Y-11035579D02*
X3338044Y-11073674D01*
X3338044Y-11073674D02*
X3338044Y-11121293D01*
X3338044Y-11121293D02*
X3328521Y-11159389D01*
X3328521Y-11159389D02*
X3318997Y-11178436D01*
X3318997Y-11178436D02*
X3309473Y-11187960D01*
X3309473Y-11187960D02*
X3290425Y-11197484D01*
X3290425Y-11197484D02*
X3271378Y-11197484D01*
X3271378Y-11197484D02*
X3252330Y-11187960D01*
X3252330Y-11187960D02*
X3242806Y-11178436D01*
X3242806Y-11178436D02*
X3233283Y-11159389D01*
X3233283Y-11159389D02*
X3223759Y-11121293D01*
X3223759Y-11121293D02*
X3223759Y-11073674D01*
X3223759Y-11073674D02*
X3233283Y-11035579D01*
X3233283Y-11035579D02*
X3242806Y-11016531D01*
X3242806Y-11016531D02*
X3252330Y-11007008D01*
X3252330Y-11007008D02*
X3271378Y-10997484D01*
X3461854Y-10997484D02*
X3480902Y-10997484D01*
X3480902Y-10997484D02*
X3499949Y-11007008D01*
X3499949Y-11007008D02*
X3509473Y-11016531D01*
X3509473Y-11016531D02*
X3518997Y-11035579D01*
X3518997Y-11035579D02*
X3528521Y-11073674D01*
X3528521Y-11073674D02*
X3528521Y-11121293D01*
X3528521Y-11121293D02*
X3518997Y-11159389D01*
X3518997Y-11159389D02*
X3509473Y-11178436D01*
X3509473Y-11178436D02*
X3499949Y-11187960D01*
X3499949Y-11187960D02*
X3480902Y-11197484D01*
X3480902Y-11197484D02*
X3461854Y-11197484D01*
X3461854Y-11197484D02*
X3442806Y-11187960D01*
X3442806Y-11187960D02*
X3433283Y-11178436D01*
X3433283Y-11178436D02*
X3423759Y-11159389D01*
X3423759Y-11159389D02*
X3414235Y-11121293D01*
X3414235Y-11121293D02*
X3414235Y-11073674D01*
X3414235Y-11073674D02*
X3423759Y-11035579D01*
X3423759Y-11035579D02*
X3433283Y-11016531D01*
X3433283Y-11016531D02*
X3442806Y-11007008D01*
X3442806Y-11007008D02*
X3461854Y-10997484D01*
X3614235Y-11197484D02*
X3614235Y-11064150D01*
X3614235Y-11083198D02*
X3623759Y-11073674D01*
X3623759Y-11073674D02*
X3642806Y-11064150D01*
X3642806Y-11064150D02*
X3671378Y-11064150D01*
X3671378Y-11064150D02*
X3690425Y-11073674D01*
X3690425Y-11073674D02*
X3699949Y-11092722D01*
X3699949Y-11092722D02*
X3699949Y-11197484D01*
X3699949Y-11092722D02*
X3709473Y-11073674D01*
X3709473Y-11073674D02*
X3728521Y-11064150D01*
X3728521Y-11064150D02*
X3757092Y-11064150D01*
X3757092Y-11064150D02*
X3776140Y-11073674D01*
X3776140Y-11073674D02*
X3785664Y-11092722D01*
X3785664Y-11092722D02*
X3785664Y-11197484D01*
X3880902Y-11197484D02*
X3880902Y-11064150D01*
X3880902Y-11083198D02*
X3890425Y-11073674D01*
X3890425Y-11073674D02*
X3909473Y-11064150D01*
X3909473Y-11064150D02*
X3938045Y-11064150D01*
X3938045Y-11064150D02*
X3957092Y-11073674D01*
X3957092Y-11073674D02*
X3966616Y-11092722D01*
X3966616Y-11092722D02*
X3966616Y-11197484D01*
X3966616Y-11092722D02*
X3976140Y-11073674D01*
X3976140Y-11073674D02*
X3995187Y-11064150D01*
X3995187Y-11064150D02*
X4023759Y-11064150D01*
X4023759Y-11064150D02*
X4042806Y-11073674D01*
X4042806Y-11073674D02*
X4052330Y-11092722D01*
X4052330Y-11092722D02*
X4052330Y-11197484D01*
X4442807Y-10987960D02*
X4271378Y-11245103D01*
X4699949Y-10997484D02*
X4718997Y-10997484D01*
X4718997Y-10997484D02*
X4738045Y-11007008D01*
X4738045Y-11007008D02*
X4747569Y-11016531D01*
X4747569Y-11016531D02*
X4757092Y-11035579D01*
X4757092Y-11035579D02*
X4766616Y-11073674D01*
X4766616Y-11073674D02*
X4766616Y-11121293D01*
X4766616Y-11121293D02*
X4757092Y-11159389D01*
X4757092Y-11159389D02*
X4747569Y-11178436D01*
X4747569Y-11178436D02*
X4738045Y-11187960D01*
X4738045Y-11187960D02*
X4718997Y-11197484D01*
X4718997Y-11197484D02*
X4699949Y-11197484D01*
X4699949Y-11197484D02*
X4680902Y-11187960D01*
X4680902Y-11187960D02*
X4671378Y-11178436D01*
X4671378Y-11178436D02*
X4661854Y-11159389D01*
X4661854Y-11159389D02*
X4652330Y-11121293D01*
X4652330Y-11121293D02*
X4652330Y-11073674D01*
X4652330Y-11073674D02*
X4661854Y-11035579D01*
X4661854Y-11035579D02*
X4671378Y-11016531D01*
X4671378Y-11016531D02*
X4680902Y-11007008D01*
X4680902Y-11007008D02*
X4699949Y-10997484D01*
X4852330Y-11178436D02*
X4861854Y-11187960D01*
X4861854Y-11187960D02*
X4852330Y-11197484D01*
X4852330Y-11197484D02*
X4842807Y-11187960D01*
X4842807Y-11187960D02*
X4852330Y-11178436D01*
X4852330Y-11178436D02*
X4852330Y-11197484D01*
X4985664Y-10997484D02*
X5004711Y-10997484D01*
X5004711Y-10997484D02*
X5023759Y-11007008D01*
X5023759Y-11007008D02*
X5033283Y-11016531D01*
X5033283Y-11016531D02*
X5042807Y-11035579D01*
X5042807Y-11035579D02*
X5052330Y-11073674D01*
X5052330Y-11073674D02*
X5052330Y-11121293D01*
X5052330Y-11121293D02*
X5042807Y-11159389D01*
X5042807Y-11159389D02*
X5033283Y-11178436D01*
X5033283Y-11178436D02*
X5023759Y-11187960D01*
X5023759Y-11187960D02*
X5004711Y-11197484D01*
X5004711Y-11197484D02*
X4985664Y-11197484D01*
X4985664Y-11197484D02*
X4966616Y-11187960D01*
X4966616Y-11187960D02*
X4957092Y-11178436D01*
X4957092Y-11178436D02*
X4947569Y-11159389D01*
X4947569Y-11159389D02*
X4938045Y-11121293D01*
X4938045Y-11121293D02*
X4938045Y-11073674D01*
X4938045Y-11073674D02*
X4947569Y-11035579D01*
X4947569Y-11035579D02*
X4957092Y-11016531D01*
X4957092Y-11016531D02*
X4966616Y-11007008D01*
X4966616Y-11007008D02*
X4985664Y-10997484D01*
X5166616Y-11083198D02*
X5147569Y-11073674D01*
X5147569Y-11073674D02*
X5138045Y-11064150D01*
X5138045Y-11064150D02*
X5128521Y-11045103D01*
X5128521Y-11045103D02*
X5128521Y-11035579D01*
X5128521Y-11035579D02*
X5138045Y-11016531D01*
X5138045Y-11016531D02*
X5147569Y-11007008D01*
X5147569Y-11007008D02*
X5166616Y-10997484D01*
X5166616Y-10997484D02*
X5204711Y-10997484D01*
X5204711Y-10997484D02*
X5223759Y-11007008D01*
X5223759Y-11007008D02*
X5233283Y-11016531D01*
X5233283Y-11016531D02*
X5242807Y-11035579D01*
X5242807Y-11035579D02*
X5242807Y-11045103D01*
X5242807Y-11045103D02*
X5233283Y-11064150D01*
X5233283Y-11064150D02*
X5223759Y-11073674D01*
X5223759Y-11073674D02*
X5204711Y-11083198D01*
X5204711Y-11083198D02*
X5166616Y-11083198D01*
X5166616Y-11083198D02*
X5147569Y-11092722D01*
X5147569Y-11092722D02*
X5138045Y-11102246D01*
X5138045Y-11102246D02*
X5128521Y-11121293D01*
X5128521Y-11121293D02*
X5128521Y-11159389D01*
X5128521Y-11159389D02*
X5138045Y-11178436D01*
X5138045Y-11178436D02*
X5147569Y-11187960D01*
X5147569Y-11187960D02*
X5166616Y-11197484D01*
X5166616Y-11197484D02*
X5204711Y-11197484D01*
X5204711Y-11197484D02*
X5223759Y-11187960D01*
X5223759Y-11187960D02*
X5233283Y-11178436D01*
X5233283Y-11178436D02*
X5242807Y-11159389D01*
X5242807Y-11159389D02*
X5242807Y-11121293D01*
X5242807Y-11121293D02*
X5233283Y-11102246D01*
X5233283Y-11102246D02*
X5223759Y-11092722D01*
X5223759Y-11092722D02*
X5204711Y-11083198D01*
X5318997Y-11016531D02*
X5328521Y-11007008D01*
X5328521Y-11007008D02*
X5347569Y-10997484D01*
X5347569Y-10997484D02*
X5395188Y-10997484D01*
X5395188Y-10997484D02*
X5414235Y-11007008D01*
X5414235Y-11007008D02*
X5423759Y-11016531D01*
X5423759Y-11016531D02*
X5433283Y-11035579D01*
X5433283Y-11035579D02*
X5433283Y-11054627D01*
X5433283Y-11054627D02*
X5423759Y-11083198D01*
X5423759Y-11083198D02*
X5309473Y-11197484D01*
X5309473Y-11197484D02*
X5433283Y-11197484D01*
X5499950Y-10997484D02*
X5633283Y-10997484D01*
X5633283Y-10997484D02*
X5547569Y-11197484D01*
X5699949Y-10997484D02*
X5699949Y-11035579D01*
X5776140Y-10997484D02*
X5776140Y-11035579D01*
X6071378Y-11273674D02*
X6061854Y-11264150D01*
X6061854Y-11264150D02*
X6042807Y-11235579D01*
X6042807Y-11235579D02*
X6033283Y-11216531D01*
X6033283Y-11216531D02*
X6023759Y-11187960D01*
X6023759Y-11187960D02*
X6014235Y-11140341D01*
X6014235Y-11140341D02*
X6014235Y-11102246D01*
X6014235Y-11102246D02*
X6023759Y-11054627D01*
X6023759Y-11054627D02*
X6033283Y-11026055D01*
X6033283Y-11026055D02*
X6042807Y-11007008D01*
X6042807Y-11007008D02*
X6061854Y-10978436D01*
X6061854Y-10978436D02*
X6071378Y-10968912D01*
X6138045Y-11016531D02*
X6147569Y-11007008D01*
X6147569Y-11007008D02*
X6166616Y-10997484D01*
X6166616Y-10997484D02*
X6214235Y-10997484D01*
X6214235Y-10997484D02*
X6233283Y-11007008D01*
X6233283Y-11007008D02*
X6242807Y-11016531D01*
X6242807Y-11016531D02*
X6252330Y-11035579D01*
X6252330Y-11035579D02*
X6252330Y-11054627D01*
X6252330Y-11054627D02*
X6242807Y-11083198D01*
X6242807Y-11083198D02*
X6128521Y-11197484D01*
X6128521Y-11197484D02*
X6252330Y-11197484D01*
X6490426Y-11197484D02*
X6490426Y-10997484D01*
X6576140Y-11197484D02*
X6576140Y-11092722D01*
X6576140Y-11092722D02*
X6566616Y-11073674D01*
X6566616Y-11073674D02*
X6547569Y-11064150D01*
X6547569Y-11064150D02*
X6518997Y-11064150D01*
X6518997Y-11064150D02*
X6499950Y-11073674D01*
X6499950Y-11073674D02*
X6490426Y-11083198D01*
X6699950Y-11197484D02*
X6680902Y-11187960D01*
X6680902Y-11187960D02*
X6671378Y-11178436D01*
X6671378Y-11178436D02*
X6661854Y-11159389D01*
X6661854Y-11159389D02*
X6661854Y-11102246D01*
X6661854Y-11102246D02*
X6671378Y-11083198D01*
X6671378Y-11083198D02*
X6680902Y-11073674D01*
X6680902Y-11073674D02*
X6699950Y-11064150D01*
X6699950Y-11064150D02*
X6728521Y-11064150D01*
X6728521Y-11064150D02*
X6747569Y-11073674D01*
X6747569Y-11073674D02*
X6757092Y-11083198D01*
X6757092Y-11083198D02*
X6766616Y-11102246D01*
X6766616Y-11102246D02*
X6766616Y-11159389D01*
X6766616Y-11159389D02*
X6757092Y-11178436D01*
X6757092Y-11178436D02*
X6747569Y-11187960D01*
X6747569Y-11187960D02*
X6728521Y-11197484D01*
X6728521Y-11197484D02*
X6699950Y-11197484D01*
X6880902Y-11197484D02*
X6861854Y-11187960D01*
X6861854Y-11187960D02*
X6852331Y-11168912D01*
X6852331Y-11168912D02*
X6852331Y-10997484D01*
X7033283Y-11187960D02*
X7014235Y-11197484D01*
X7014235Y-11197484D02*
X6976140Y-11197484D01*
X6976140Y-11197484D02*
X6957092Y-11187960D01*
X6957092Y-11187960D02*
X6947569Y-11168912D01*
X6947569Y-11168912D02*
X6947569Y-11092722D01*
X6947569Y-11092722D02*
X6957092Y-11073674D01*
X6957092Y-11073674D02*
X6976140Y-11064150D01*
X6976140Y-11064150D02*
X7014235Y-11064150D01*
X7014235Y-11064150D02*
X7033283Y-11073674D01*
X7033283Y-11073674D02*
X7042807Y-11092722D01*
X7042807Y-11092722D02*
X7042807Y-11111770D01*
X7042807Y-11111770D02*
X6947569Y-11130817D01*
X7118997Y-11187960D02*
X7138045Y-11197484D01*
X7138045Y-11197484D02*
X7176140Y-11197484D01*
X7176140Y-11197484D02*
X7195188Y-11187960D01*
X7195188Y-11187960D02*
X7204712Y-11168912D01*
X7204712Y-11168912D02*
X7204712Y-11159389D01*
X7204712Y-11159389D02*
X7195188Y-11140341D01*
X7195188Y-11140341D02*
X7176140Y-11130817D01*
X7176140Y-11130817D02*
X7147569Y-11130817D01*
X7147569Y-11130817D02*
X7128521Y-11121293D01*
X7128521Y-11121293D02*
X7118997Y-11102246D01*
X7118997Y-11102246D02*
X7118997Y-11092722D01*
X7118997Y-11092722D02*
X7128521Y-11073674D01*
X7128521Y-11073674D02*
X7147569Y-11064150D01*
X7147569Y-11064150D02*
X7176140Y-11064150D01*
X7176140Y-11064150D02*
X7195188Y-11073674D01*
X7271378Y-11273674D02*
X7280902Y-11264150D01*
X7280902Y-11264150D02*
X7299950Y-11235579D01*
X7299950Y-11235579D02*
X7309473Y-11216531D01*
X7309473Y-11216531D02*
X7318997Y-11187960D01*
X7318997Y-11187960D02*
X7328521Y-11140341D01*
X7328521Y-11140341D02*
X7328521Y-11102246D01*
X7328521Y-11102246D02*
X7318997Y-11054627D01*
X7318997Y-11054627D02*
X7309473Y-11026055D01*
X7309473Y-11026055D02*
X7299950Y-11007008D01*
X7299950Y-11007008D02*
X7280902Y-10978436D01*
X7280902Y-10978436D02*
X7271378Y-10968912D01*
X2296315Y-11326000D02*
X2496315Y-11526000D01*
X2496315Y-11326000D02*
X2296315Y-11526000D01*
X2496315Y-11426000D02*
G75*
G03*
X2296315Y-11426000I-100000J0D01*
G01*
X2296315Y-11426000D02*
G75*
G03*
X2496315Y-11426000I100000J0D01*
G01*
X2747568Y-11336531D02*
X2757092Y-11327008D01*
X2757092Y-11327008D02*
X2776140Y-11317484D01*
X2776140Y-11317484D02*
X2823759Y-11317484D01*
X2823759Y-11317484D02*
X2842806Y-11327008D01*
X2842806Y-11327008D02*
X2852330Y-11336531D01*
X2852330Y-11336531D02*
X2861854Y-11355579D01*
X2861854Y-11355579D02*
X2861854Y-11374627D01*
X2861854Y-11374627D02*
X2852330Y-11403198D01*
X2852330Y-11403198D02*
X2738045Y-11517484D01*
X2738045Y-11517484D02*
X2861854Y-11517484D01*
X2947568Y-11498436D02*
X2957092Y-11507960D01*
X2957092Y-11507960D02*
X2947568Y-11517484D01*
X2947568Y-11517484D02*
X2938044Y-11507960D01*
X2938044Y-11507960D02*
X2947568Y-11498436D01*
X2947568Y-11498436D02*
X2947568Y-11517484D01*
X3138044Y-11317484D02*
X3042806Y-11317484D01*
X3042806Y-11317484D02*
X3033283Y-11412722D01*
X3033283Y-11412722D02*
X3042806Y-11403198D01*
X3042806Y-11403198D02*
X3061854Y-11393674D01*
X3061854Y-11393674D02*
X3109473Y-11393674D01*
X3109473Y-11393674D02*
X3128521Y-11403198D01*
X3128521Y-11403198D02*
X3138044Y-11412722D01*
X3138044Y-11412722D02*
X3147568Y-11431769D01*
X3147568Y-11431769D02*
X3147568Y-11479388D01*
X3147568Y-11479388D02*
X3138044Y-11498436D01*
X3138044Y-11498436D02*
X3128521Y-11507960D01*
X3128521Y-11507960D02*
X3109473Y-11517484D01*
X3109473Y-11517484D02*
X3061854Y-11517484D01*
X3061854Y-11517484D02*
X3042806Y-11507960D01*
X3042806Y-11507960D02*
X3033283Y-11498436D01*
X3271378Y-11317484D02*
X3290425Y-11317484D01*
X3290425Y-11317484D02*
X3309473Y-11327008D01*
X3309473Y-11327008D02*
X3318997Y-11336531D01*
X3318997Y-11336531D02*
X3328521Y-11355579D01*
X3328521Y-11355579D02*
X3338044Y-11393674D01*
X3338044Y-11393674D02*
X3338044Y-11441293D01*
X3338044Y-11441293D02*
X3328521Y-11479388D01*
X3328521Y-11479388D02*
X3318997Y-11498436D01*
X3318997Y-11498436D02*
X3309473Y-11507960D01*
X3309473Y-11507960D02*
X3290425Y-11517484D01*
X3290425Y-11517484D02*
X3271378Y-11517484D01*
X3271378Y-11517484D02*
X3252330Y-11507960D01*
X3252330Y-11507960D02*
X3242806Y-11498436D01*
X3242806Y-11498436D02*
X3233283Y-11479388D01*
X3233283Y-11479388D02*
X3223759Y-11441293D01*
X3223759Y-11441293D02*
X3223759Y-11393674D01*
X3223759Y-11393674D02*
X3233283Y-11355579D01*
X3233283Y-11355579D02*
X3242806Y-11336531D01*
X3242806Y-11336531D02*
X3252330Y-11327008D01*
X3252330Y-11327008D02*
X3271378Y-11317484D01*
X3461854Y-11317484D02*
X3480902Y-11317484D01*
X3480902Y-11317484D02*
X3499949Y-11327008D01*
X3499949Y-11327008D02*
X3509473Y-11336531D01*
X3509473Y-11336531D02*
X3518997Y-11355579D01*
X3518997Y-11355579D02*
X3528521Y-11393674D01*
X3528521Y-11393674D02*
X3528521Y-11441293D01*
X3528521Y-11441293D02*
X3518997Y-11479388D01*
X3518997Y-11479388D02*
X3509473Y-11498436D01*
X3509473Y-11498436D02*
X3499949Y-11507960D01*
X3499949Y-11507960D02*
X3480902Y-11517484D01*
X3480902Y-11517484D02*
X3461854Y-11517484D01*
X3461854Y-11517484D02*
X3442806Y-11507960D01*
X3442806Y-11507960D02*
X3433283Y-11498436D01*
X3433283Y-11498436D02*
X3423759Y-11479388D01*
X3423759Y-11479388D02*
X3414235Y-11441293D01*
X3414235Y-11441293D02*
X3414235Y-11393674D01*
X3414235Y-11393674D02*
X3423759Y-11355579D01*
X3423759Y-11355579D02*
X3433283Y-11336531D01*
X3433283Y-11336531D02*
X3442806Y-11327008D01*
X3442806Y-11327008D02*
X3461854Y-11317484D01*
X3614235Y-11517484D02*
X3614235Y-11384150D01*
X3614235Y-11403198D02*
X3623759Y-11393674D01*
X3623759Y-11393674D02*
X3642806Y-11384150D01*
X3642806Y-11384150D02*
X3671378Y-11384150D01*
X3671378Y-11384150D02*
X3690425Y-11393674D01*
X3690425Y-11393674D02*
X3699949Y-11412722D01*
X3699949Y-11412722D02*
X3699949Y-11517484D01*
X3699949Y-11412722D02*
X3709473Y-11393674D01*
X3709473Y-11393674D02*
X3728521Y-11384150D01*
X3728521Y-11384150D02*
X3757092Y-11384150D01*
X3757092Y-11384150D02*
X3776140Y-11393674D01*
X3776140Y-11393674D02*
X3785664Y-11412722D01*
X3785664Y-11412722D02*
X3785664Y-11517484D01*
X3880902Y-11517484D02*
X3880902Y-11384150D01*
X3880902Y-11403198D02*
X3890425Y-11393674D01*
X3890425Y-11393674D02*
X3909473Y-11384150D01*
X3909473Y-11384150D02*
X3938045Y-11384150D01*
X3938045Y-11384150D02*
X3957092Y-11393674D01*
X3957092Y-11393674D02*
X3966616Y-11412722D01*
X3966616Y-11412722D02*
X3966616Y-11517484D01*
X3966616Y-11412722D02*
X3976140Y-11393674D01*
X3976140Y-11393674D02*
X3995187Y-11384150D01*
X3995187Y-11384150D02*
X4023759Y-11384150D01*
X4023759Y-11384150D02*
X4042806Y-11393674D01*
X4042806Y-11393674D02*
X4052330Y-11412722D01*
X4052330Y-11412722D02*
X4052330Y-11517484D01*
X4442807Y-11307960D02*
X4271378Y-11565103D01*
X4699949Y-11317484D02*
X4718997Y-11317484D01*
X4718997Y-11317484D02*
X4738045Y-11327008D01*
X4738045Y-11327008D02*
X4747569Y-11336531D01*
X4747569Y-11336531D02*
X4757092Y-11355579D01*
X4757092Y-11355579D02*
X4766616Y-11393674D01*
X4766616Y-11393674D02*
X4766616Y-11441293D01*
X4766616Y-11441293D02*
X4757092Y-11479388D01*
X4757092Y-11479388D02*
X4747569Y-11498436D01*
X4747569Y-11498436D02*
X4738045Y-11507960D01*
X4738045Y-11507960D02*
X4718997Y-11517484D01*
X4718997Y-11517484D02*
X4699949Y-11517484D01*
X4699949Y-11517484D02*
X4680902Y-11507960D01*
X4680902Y-11507960D02*
X4671378Y-11498436D01*
X4671378Y-11498436D02*
X4661854Y-11479388D01*
X4661854Y-11479388D02*
X4652330Y-11441293D01*
X4652330Y-11441293D02*
X4652330Y-11393674D01*
X4652330Y-11393674D02*
X4661854Y-11355579D01*
X4661854Y-11355579D02*
X4671378Y-11336531D01*
X4671378Y-11336531D02*
X4680902Y-11327008D01*
X4680902Y-11327008D02*
X4699949Y-11317484D01*
X4852330Y-11498436D02*
X4861854Y-11507960D01*
X4861854Y-11507960D02*
X4852330Y-11517484D01*
X4852330Y-11517484D02*
X4842807Y-11507960D01*
X4842807Y-11507960D02*
X4852330Y-11498436D01*
X4852330Y-11498436D02*
X4852330Y-11517484D01*
X4985664Y-11317484D02*
X5004711Y-11317484D01*
X5004711Y-11317484D02*
X5023759Y-11327008D01*
X5023759Y-11327008D02*
X5033283Y-11336531D01*
X5033283Y-11336531D02*
X5042807Y-11355579D01*
X5042807Y-11355579D02*
X5052330Y-11393674D01*
X5052330Y-11393674D02*
X5052330Y-11441293D01*
X5052330Y-11441293D02*
X5042807Y-11479388D01*
X5042807Y-11479388D02*
X5033283Y-11498436D01*
X5033283Y-11498436D02*
X5023759Y-11507960D01*
X5023759Y-11507960D02*
X5004711Y-11517484D01*
X5004711Y-11517484D02*
X4985664Y-11517484D01*
X4985664Y-11517484D02*
X4966616Y-11507960D01*
X4966616Y-11507960D02*
X4957092Y-11498436D01*
X4957092Y-11498436D02*
X4947569Y-11479388D01*
X4947569Y-11479388D02*
X4938045Y-11441293D01*
X4938045Y-11441293D02*
X4938045Y-11393674D01*
X4938045Y-11393674D02*
X4947569Y-11355579D01*
X4947569Y-11355579D02*
X4957092Y-11336531D01*
X4957092Y-11336531D02*
X4966616Y-11327008D01*
X4966616Y-11327008D02*
X4985664Y-11317484D01*
X5147569Y-11517484D02*
X5185664Y-11517484D01*
X5185664Y-11517484D02*
X5204711Y-11507960D01*
X5204711Y-11507960D02*
X5214235Y-11498436D01*
X5214235Y-11498436D02*
X5233283Y-11469865D01*
X5233283Y-11469865D02*
X5242807Y-11431769D01*
X5242807Y-11431769D02*
X5242807Y-11355579D01*
X5242807Y-11355579D02*
X5233283Y-11336531D01*
X5233283Y-11336531D02*
X5223759Y-11327008D01*
X5223759Y-11327008D02*
X5204711Y-11317484D01*
X5204711Y-11317484D02*
X5166616Y-11317484D01*
X5166616Y-11317484D02*
X5147569Y-11327008D01*
X5147569Y-11327008D02*
X5138045Y-11336531D01*
X5138045Y-11336531D02*
X5128521Y-11355579D01*
X5128521Y-11355579D02*
X5128521Y-11403198D01*
X5128521Y-11403198D02*
X5138045Y-11422246D01*
X5138045Y-11422246D02*
X5147569Y-11431769D01*
X5147569Y-11431769D02*
X5166616Y-11441293D01*
X5166616Y-11441293D02*
X5204711Y-11441293D01*
X5204711Y-11441293D02*
X5223759Y-11431769D01*
X5223759Y-11431769D02*
X5233283Y-11422246D01*
X5233283Y-11422246D02*
X5242807Y-11403198D01*
X5357092Y-11403198D02*
X5338045Y-11393674D01*
X5338045Y-11393674D02*
X5328521Y-11384150D01*
X5328521Y-11384150D02*
X5318997Y-11365103D01*
X5318997Y-11365103D02*
X5318997Y-11355579D01*
X5318997Y-11355579D02*
X5328521Y-11336531D01*
X5328521Y-11336531D02*
X5338045Y-11327008D01*
X5338045Y-11327008D02*
X5357092Y-11317484D01*
X5357092Y-11317484D02*
X5395188Y-11317484D01*
X5395188Y-11317484D02*
X5414235Y-11327008D01*
X5414235Y-11327008D02*
X5423759Y-11336531D01*
X5423759Y-11336531D02*
X5433283Y-11355579D01*
X5433283Y-11355579D02*
X5433283Y-11365103D01*
X5433283Y-11365103D02*
X5423759Y-11384150D01*
X5423759Y-11384150D02*
X5414235Y-11393674D01*
X5414235Y-11393674D02*
X5395188Y-11403198D01*
X5395188Y-11403198D02*
X5357092Y-11403198D01*
X5357092Y-11403198D02*
X5338045Y-11412722D01*
X5338045Y-11412722D02*
X5328521Y-11422246D01*
X5328521Y-11422246D02*
X5318997Y-11441293D01*
X5318997Y-11441293D02*
X5318997Y-11479388D01*
X5318997Y-11479388D02*
X5328521Y-11498436D01*
X5328521Y-11498436D02*
X5338045Y-11507960D01*
X5338045Y-11507960D02*
X5357092Y-11517484D01*
X5357092Y-11517484D02*
X5395188Y-11517484D01*
X5395188Y-11517484D02*
X5414235Y-11507960D01*
X5414235Y-11507960D02*
X5423759Y-11498436D01*
X5423759Y-11498436D02*
X5433283Y-11479388D01*
X5433283Y-11479388D02*
X5433283Y-11441293D01*
X5433283Y-11441293D02*
X5423759Y-11422246D01*
X5423759Y-11422246D02*
X5414235Y-11412722D01*
X5414235Y-11412722D02*
X5395188Y-11403198D01*
X5604711Y-11384150D02*
X5604711Y-11517484D01*
X5557092Y-11307960D02*
X5509473Y-11450817D01*
X5509473Y-11450817D02*
X5633283Y-11450817D01*
X5699949Y-11317484D02*
X5699949Y-11355579D01*
X5776140Y-11317484D02*
X5776140Y-11355579D01*
X6071378Y-11593674D02*
X6061854Y-11584150D01*
X6061854Y-11584150D02*
X6042807Y-11555579D01*
X6042807Y-11555579D02*
X6033283Y-11536531D01*
X6033283Y-11536531D02*
X6023759Y-11507960D01*
X6023759Y-11507960D02*
X6014235Y-11460341D01*
X6014235Y-11460341D02*
X6014235Y-11422246D01*
X6014235Y-11422246D02*
X6023759Y-11374627D01*
X6023759Y-11374627D02*
X6033283Y-11346055D01*
X6033283Y-11346055D02*
X6042807Y-11327008D01*
X6042807Y-11327008D02*
X6061854Y-11298436D01*
X6061854Y-11298436D02*
X6071378Y-11288912D01*
X6233283Y-11317484D02*
X6195188Y-11317484D01*
X6195188Y-11317484D02*
X6176140Y-11327008D01*
X6176140Y-11327008D02*
X6166616Y-11336531D01*
X6166616Y-11336531D02*
X6147569Y-11365103D01*
X6147569Y-11365103D02*
X6138045Y-11403198D01*
X6138045Y-11403198D02*
X6138045Y-11479388D01*
X6138045Y-11479388D02*
X6147569Y-11498436D01*
X6147569Y-11498436D02*
X6157092Y-11507960D01*
X6157092Y-11507960D02*
X6176140Y-11517484D01*
X6176140Y-11517484D02*
X6214235Y-11517484D01*
X6214235Y-11517484D02*
X6233283Y-11507960D01*
X6233283Y-11507960D02*
X6242807Y-11498436D01*
X6242807Y-11498436D02*
X6252330Y-11479388D01*
X6252330Y-11479388D02*
X6252330Y-11431769D01*
X6252330Y-11431769D02*
X6242807Y-11412722D01*
X6242807Y-11412722D02*
X6233283Y-11403198D01*
X6233283Y-11403198D02*
X6214235Y-11393674D01*
X6214235Y-11393674D02*
X6176140Y-11393674D01*
X6176140Y-11393674D02*
X6157092Y-11403198D01*
X6157092Y-11403198D02*
X6147569Y-11412722D01*
X6147569Y-11412722D02*
X6138045Y-11431769D01*
X6490426Y-11517484D02*
X6490426Y-11317484D01*
X6576140Y-11517484D02*
X6576140Y-11412722D01*
X6576140Y-11412722D02*
X6566616Y-11393674D01*
X6566616Y-11393674D02*
X6547569Y-11384150D01*
X6547569Y-11384150D02*
X6518997Y-11384150D01*
X6518997Y-11384150D02*
X6499950Y-11393674D01*
X6499950Y-11393674D02*
X6490426Y-11403198D01*
X6699950Y-11517484D02*
X6680902Y-11507960D01*
X6680902Y-11507960D02*
X6671378Y-11498436D01*
X6671378Y-11498436D02*
X6661854Y-11479388D01*
X6661854Y-11479388D02*
X6661854Y-11422246D01*
X6661854Y-11422246D02*
X6671378Y-11403198D01*
X6671378Y-11403198D02*
X6680902Y-11393674D01*
X6680902Y-11393674D02*
X6699950Y-11384150D01*
X6699950Y-11384150D02*
X6728521Y-11384150D01*
X6728521Y-11384150D02*
X6747569Y-11393674D01*
X6747569Y-11393674D02*
X6757092Y-11403198D01*
X6757092Y-11403198D02*
X6766616Y-11422246D01*
X6766616Y-11422246D02*
X6766616Y-11479388D01*
X6766616Y-11479388D02*
X6757092Y-11498436D01*
X6757092Y-11498436D02*
X6747569Y-11507960D01*
X6747569Y-11507960D02*
X6728521Y-11517484D01*
X6728521Y-11517484D02*
X6699950Y-11517484D01*
X6880902Y-11517484D02*
X6861854Y-11507960D01*
X6861854Y-11507960D02*
X6852331Y-11488912D01*
X6852331Y-11488912D02*
X6852331Y-11317484D01*
X7033283Y-11507960D02*
X7014235Y-11517484D01*
X7014235Y-11517484D02*
X6976140Y-11517484D01*
X6976140Y-11517484D02*
X6957092Y-11507960D01*
X6957092Y-11507960D02*
X6947569Y-11488912D01*
X6947569Y-11488912D02*
X6947569Y-11412722D01*
X6947569Y-11412722D02*
X6957092Y-11393674D01*
X6957092Y-11393674D02*
X6976140Y-11384150D01*
X6976140Y-11384150D02*
X7014235Y-11384150D01*
X7014235Y-11384150D02*
X7033283Y-11393674D01*
X7033283Y-11393674D02*
X7042807Y-11412722D01*
X7042807Y-11412722D02*
X7042807Y-11431769D01*
X7042807Y-11431769D02*
X6947569Y-11450817D01*
X7118997Y-11507960D02*
X7138045Y-11517484D01*
X7138045Y-11517484D02*
X7176140Y-11517484D01*
X7176140Y-11517484D02*
X7195188Y-11507960D01*
X7195188Y-11507960D02*
X7204712Y-11488912D01*
X7204712Y-11488912D02*
X7204712Y-11479388D01*
X7204712Y-11479388D02*
X7195188Y-11460341D01*
X7195188Y-11460341D02*
X7176140Y-11450817D01*
X7176140Y-11450817D02*
X7147569Y-11450817D01*
X7147569Y-11450817D02*
X7128521Y-11441293D01*
X7128521Y-11441293D02*
X7118997Y-11422246D01*
X7118997Y-11422246D02*
X7118997Y-11412722D01*
X7118997Y-11412722D02*
X7128521Y-11393674D01*
X7128521Y-11393674D02*
X7147569Y-11384150D01*
X7147569Y-11384150D02*
X7176140Y-11384150D01*
X7176140Y-11384150D02*
X7195188Y-11393674D01*
X7271378Y-11593674D02*
X7280902Y-11584150D01*
X7280902Y-11584150D02*
X7299950Y-11555579D01*
X7299950Y-11555579D02*
X7309473Y-11536531D01*
X7309473Y-11536531D02*
X7318997Y-11507960D01*
X7318997Y-11507960D02*
X7328521Y-11460341D01*
X7328521Y-11460341D02*
X7328521Y-11422246D01*
X7328521Y-11422246D02*
X7318997Y-11374627D01*
X7318997Y-11374627D02*
X7309473Y-11346055D01*
X7309473Y-11346055D02*
X7299950Y-11327008D01*
X7299950Y-11327008D02*
X7280902Y-11298436D01*
X7280902Y-11298436D02*
X7271378Y-11288912D01*
M02*
