M48
; DRILL file {KiCad 7.0.10} date Wed Jan 10 23:01:15 2024
; FORMAT={-:-/ absolute / inch / decimal}
; #@! TF.CreationDate,2024-01-10T23:01:15+01:00
; #@! TF.GenerationSoftware,Kicad,Pcbnew,7.0.10
; #@! TF.FileFunction,Plated,1,2,PTH
FMAT,2
INCH
; #@! TA.AperFunction,Plated,PTH,ComponentDrill
T1C0.0315
; #@! TA.AperFunction,Plated,PTH,ComponentDrill
T2C0.0354
; #@! TA.AperFunction,Plated,PTH,ComponentDrill
T3C0.0394
; #@! TA.AperFunction,Plated,PTH,ComponentDrill
T4C0.0433
; #@! TA.AperFunction,Plated,PTH,ComponentDrill
T5C0.0827
; #@! TA.AperFunction,Plated,PTH,ComponentDrill
T6C0.0984
%
G90
G05
T1
X1.5684Y-1.7685
X1.5684Y-2.1685
X2.1133Y-2.3622
X2.1589Y-1.1417
X2.1589Y-1.5417
X2.5133Y-2.3622
X2.8282Y-1.7323
X2.8282Y-2.1323
X3.2249Y-1.2884
X3.2249Y-1.3884
X3.2249Y-1.4884
X3.2249Y-1.5884
X3.2249Y-1.6884
X3.2249Y-1.7884
X3.2249Y-1.8884
X3.2249Y-1.9884
X3.2249Y-2.0884
X3.2249Y-2.1884
X3.2249Y-2.2884
X3.2249Y-2.3884
X3.2249Y-2.4884
X3.2249Y-2.5884
X3.2249Y-2.6884
X3.2249Y-2.7884
X3.2249Y-2.8884
X3.2249Y-2.9884
X3.2249Y-3.0884
X3.2249Y-3.1884
X3.2249Y-3.2884
X3.2249Y-3.3884
X4.1249Y-1.5884
X4.1249Y-1.6884
X4.1249Y-1.7884
X4.1249Y-1.8884
X4.1249Y-1.9884
X4.1249Y-2.0884
X4.1249Y-2.1884
X4.1249Y-2.2884
X4.1249Y-2.3884
X4.1249Y-2.4884
X4.1249Y-2.5884
X4.1249Y-2.6884
X4.1249Y-2.7884
X4.1249Y-2.8884
X4.1249Y-2.9884
X4.1249Y-3.0884
X4.1249Y-3.1884
X4.1249Y-3.2884
X4.1249Y-3.3884
X4.125Y-1.2885
X4.125Y-1.3885
X4.125Y-1.4885
X4.29Y-2.4903
X4.29Y-2.7403
X4.3Y-2.9903
X4.69Y-2.4903
X4.69Y-2.7403
X4.7Y-2.9903
X4.84Y-2.5903
X4.84Y-2.9903
X5.04Y-2.4703
X5.04Y-2.8703
X5.04Y-3.0003
X5.04Y-3.4003
X5.3479Y-1.8079
X5.3479Y-2.2079
X6.2141Y-1.411
X6.2141Y-1.811
T2
X4.2449Y-3.3003
X4.2949Y-3.3003
X4.3449Y-3.3003
X4.3949Y-3.3003
T3
X4.2699Y-1.0147
X4.2699Y-1.9202
X4.3699Y-1.9202
X4.7211Y-1.9202
X4.8211Y-1.0147
X4.8211Y-1.9202
T4
X1.0763Y-1.7717
X1.0763Y-1.9488
X1.3322Y-1.7717
X1.3322Y-1.9488
X1.716Y-1.1713
X1.716Y-1.3484
X1.716Y-2.3524
X1.716Y-2.5295
X1.9719Y-1.1713
X1.9719Y-1.3484
X1.9719Y-2.3524
X1.9719Y-2.5295
X2.3459Y-1.7618
X2.3459Y-1.939
X2.6018Y-1.7618
X2.6018Y-1.939
X4.5469Y-3.2017
X4.5469Y-3.3789
X4.8028Y-3.2017
X4.8028Y-3.3789
X5.6137Y-1.8406
X5.6137Y-2.0177
X5.8696Y-1.8406
X5.8696Y-2.0177
X6.4404Y-1.4075
X6.4404Y-1.5846
X6.6963Y-1.4075
X6.6963Y-1.5846
T5
X5.05Y-1.0203
X5.05Y-1.3274
T6
X1.8378Y-1.8502
X2.907Y-1.1811
X3.1038Y-3.5827
X5.1511Y-3.5827
X5.3479Y-1.1811
X6.4171Y-1.8502
M30
