%TF.GenerationSoftware,KiCad,Pcbnew,7.0.10*%
%TF.CreationDate,2024-01-10T23:01:06+01:00*%
%TF.ProjectId,schematic2,73636865-6d61-4746-9963-322e6b696361,V2.0*%
%TF.SameCoordinates,Original*%
%TF.FileFunction,Plated,1,2,PTH,Drill*%
%TF.FilePolarity,Positive*%
%FSLAX46Y46*%
G04 Gerber Fmt 4.6, Leading zero omitted, Abs format (unit mm)*
G04 Created by KiCad (PCBNEW 7.0.10) date 2024-01-10 23:01:06*
%MOMM*%
%LPD*%
G01*
G04 APERTURE LIST*
%TA.AperFunction,ComponentDrill*%
%ADD10C,0.800000*%
%TD*%
%TA.AperFunction,ComponentDrill*%
%ADD11C,0.900000*%
%TD*%
%TA.AperFunction,ComponentDrill*%
%ADD12C,1.000000*%
%TD*%
%TA.AperFunction,ComponentDrill*%
%ADD13C,1.100000*%
%TD*%
%TA.AperFunction,ComponentDrill*%
%ADD14C,2.100000*%
%TD*%
%TA.AperFunction,ComponentDrill*%
%ADD15C,2.500000*%
%TD*%
G04 APERTURE END LIST*
D10*
%TO.C,R5*%
X39836900Y-44920000D03*
X39836900Y-55080000D03*
%TO.C,R4*%
X53676900Y-60000000D03*
%TO.C,R3*%
X54836900Y-29000000D03*
X54836900Y-39160000D03*
%TO.C,R4*%
X63836900Y-60000000D03*
%TO.C,R6*%
X71836900Y-44000000D03*
X71836900Y-54160000D03*
%TO.C,U1*%
X81911900Y-32725000D03*
X81911900Y-35265000D03*
X81911900Y-37805000D03*
X81911900Y-40345000D03*
X81911900Y-42885000D03*
X81911900Y-45425000D03*
X81911900Y-47965000D03*
X81911900Y-50505000D03*
X81911900Y-53045000D03*
X81911900Y-55585000D03*
X81911900Y-58125000D03*
X81911900Y-60665000D03*
X81911900Y-63205000D03*
X81911900Y-65745000D03*
X81911900Y-68285000D03*
X81911900Y-70825000D03*
X81911900Y-73365000D03*
X81911900Y-75905000D03*
X81911900Y-78445000D03*
X81911900Y-80985000D03*
X81911900Y-83525000D03*
X81911900Y-86065000D03*
X104771900Y-40345000D03*
X104771900Y-42885000D03*
X104771900Y-45425000D03*
X104771900Y-47965000D03*
X104771900Y-50505000D03*
X104771900Y-53045000D03*
X104771900Y-55585000D03*
X104771900Y-58125000D03*
X104771900Y-60665000D03*
X104771900Y-63205000D03*
X104771900Y-65745000D03*
X104771900Y-68285000D03*
X104771900Y-70825000D03*
X104771900Y-73365000D03*
X104771900Y-75905000D03*
X104771900Y-78445000D03*
X104771900Y-80985000D03*
X104771900Y-83525000D03*
X104771900Y-86065000D03*
X104775580Y-32727720D03*
X104775580Y-35267720D03*
X104775580Y-37807720D03*
%TO.C,R8*%
X108966000Y-63252900D03*
%TO.C,R9*%
X108966000Y-69602900D03*
%TO.C,R10*%
X109220000Y-75952900D03*
%TO.C,R8*%
X119126000Y-63252900D03*
%TO.C,R9*%
X119126000Y-69602900D03*
%TO.C,R10*%
X119380000Y-75952900D03*
%TO.C,R7*%
X122936000Y-65792900D03*
X122936000Y-75952900D03*
%TO.C,R11*%
X128016000Y-62744900D03*
X128016000Y-72904900D03*
%TO.C,R12*%
X128016000Y-76206900D03*
X128016000Y-86366900D03*
%TO.C,R2*%
X135836900Y-45920000D03*
X135836900Y-56080000D03*
%TO.C,R1*%
X157836900Y-35840000D03*
X157836900Y-46000000D03*
D11*
%TO.C,J3*%
X107819900Y-83826900D03*
X109089900Y-83826900D03*
X110359900Y-83826900D03*
X111629900Y-83826900D03*
D12*
%TO.C,J2*%
X108454700Y-25773300D03*
X108454700Y-48773300D03*
X110994700Y-48773300D03*
X119914700Y-48773300D03*
X122454700Y-25773300D03*
X122454700Y-48773300D03*
D13*
%TO.C,SW5*%
X27336900Y-45000000D03*
X27336900Y-49500000D03*
X33836900Y-45000000D03*
X33836900Y-49500000D03*
%TO.C,SW3*%
X43586900Y-29750000D03*
X43586900Y-34250000D03*
%TO.C,SW4*%
X43586900Y-59750000D03*
X43586900Y-64250000D03*
%TO.C,SW3*%
X50086900Y-29750000D03*
X50086900Y-34250000D03*
%TO.C,SW4*%
X50086900Y-59750000D03*
X50086900Y-64250000D03*
%TO.C,SW6*%
X59586900Y-44750000D03*
X59586900Y-49250000D03*
X66086900Y-44750000D03*
X66086900Y-49250000D03*
%TO.C,SW7*%
X115491900Y-81322900D03*
X115491900Y-85822900D03*
X121991900Y-81322900D03*
X121991900Y-85822900D03*
%TO.C,SW2*%
X142586900Y-46750000D03*
X142586900Y-51250000D03*
X149086900Y-46750000D03*
X149086900Y-51250000D03*
%TO.C,SW1*%
X163586900Y-35750000D03*
X163586900Y-40250000D03*
X170086900Y-35750000D03*
X170086900Y-40250000D03*
D14*
%TO.C,J1*%
X128270000Y-25914900D03*
X128270000Y-33714900D03*
D15*
%TO.C,H5*%
X46679800Y-46993900D03*
%TO.C,H1*%
X73836900Y-30000000D03*
%TO.C,H3*%
X78836900Y-91000000D03*
%TO.C,H4*%
X130836900Y-91000000D03*
%TO.C,H2*%
X135836900Y-30000000D03*
%TO.C,H6*%
X162994000Y-46993900D03*
M02*
